<?xml version="1.0" encoding="UTF-8"?>
<svg width="24px" height="24px" viewBox="0 0 24 24" version="1.1" xmlns="http://www.w3.org/2000/svg" xmlns:xlink="http://www.w3.org/1999/xlink">
    <title>icon/clipboard_alt_24px</title>
    <defs>
        <path d="M14.625,0.75 C15.038625,0.75 15.375,1.086375 15.375,1.5 L15.375,1.5 L18.75,1.5 C19.37025,1.5 19.875,2.00475 19.875,2.625 L19.875,2.625 L19.875,22.125 C19.875,22.74525 19.37025,23.25 18.75,23.25 L18.75,23.25 L5.25,23.25 C4.62975,23.25 4.125,22.74525 4.125,22.125 L4.125,22.125 L4.125,2.625 C4.125,2.00475 4.62975,1.5 5.25,1.5 L5.25,1.5 L8.625,1.5 C8.625,1.086375 8.961375,0.75 9.375,0.75 L9.375,0.75 Z M8.625,2.25 L5.25,2.25 C5.043,2.25 4.875,2.418375 4.875,2.625 L4.875,2.625 L4.875,22.125 C4.875,22.331625 5.043,22.5 5.25,22.5 L5.25,22.5 L18.75,22.5 C18.957,22.5 19.125,22.331625 19.125,22.125 L19.125,22.125 L19.125,2.625 C19.125,2.418375 18.957,2.25 18.75,2.25 L18.75,2.25 L15.375,2.25 L15.375,3 L17.625,3 C18.038625,3 18.375,3.336375 18.375,3.75 L18.375,3.75 L18.375,21 C18.375,21.413625 18.038625,21.75 17.625,21.75 L17.625,21.75 L6.375,21.75 C5.961375,21.75 5.625,21.413625 5.625,21 L5.625,21 L5.625,3.75 C5.625,3.336375 5.961375,3 6.375,3 L6.375,3 L8.625,3 L8.625,2.25 Z M8.625,3.75 L6.375,3.75 L6.375,21 L17.625,21 L17.625,3.75 L15.375,3.75 C15.375,4.163625 15.038625,4.5 14.625,4.5 L14.625,4.5 L9.375,4.5 C8.961375,4.5 8.625,4.163625 8.625,3.75 L8.625,3.75 Z M11.25,18.375 C11.457375,18.375 11.625,18.543 11.625,18.75 C11.625,18.957 11.457375,19.125 11.25,19.125 L11.25,19.125 L7.5,19.125 C7.292625,19.125 7.125,18.957 7.125,18.75 C7.125,18.543 7.292625,18.375 7.5,18.375 L7.5,18.375 Z M16.194825,15.9071625 C16.315575,15.7387875 16.54995,15.6997875 16.71795,15.8197875 C16.886325,15.9401625 16.9257,16.1745375 16.80495,16.3429125 L16.80495,16.3429125 L14.92995,18.9679125 C14.922075,18.9791625 14.909325,18.9832875 14.900325,18.9934125 C14.88345,19.0125375 14.871075,19.0342875 14.8497,19.0500375 C14.8377,19.0590375 14.82345,19.0627875 14.8107,19.0702875 C14.798325,19.0774125 14.787075,19.0837875 14.77395,19.0894125 C14.72595,19.1107875 14.676075,19.1250375 14.62545,19.1250375 L14.62545,19.1250375 C14.5752,19.1250375 14.52645,19.1115375 14.4792,19.0912875 C14.466825,19.0860375 14.45595,19.0804125 14.444325,19.0736625 C14.43195,19.0669125 14.418825,19.0635375 14.4072,19.0552875 C14.3862,19.0402875 14.37345,19.0192875 14.356575,19.0012875 C14.3472,18.9911625 14.3337,18.9866625 14.325075,18.9750375 L14.325075,18.9750375 L13.200075,17.4750375 C13.075575,17.3092875 13.109325,17.0741625 13.275075,16.9500375 C13.440825,16.8251625 13.67595,16.8592875 13.800075,17.0250375 L13.800075,17.0250375 L14.617575,18.1151625 Z M11.625,16.875 C11.832375,16.875 12,17.043 12,17.25 C12,17.457 11.832375,17.625 11.625,17.625 L11.625,17.625 L7.5,17.625 C7.292625,17.625 7.125,17.457 7.125,17.25 C7.125,17.043 7.292625,16.875 7.5,16.875 L7.5,16.875 Z M12.375,15.375 C12.582375,15.375 12.75,15.543 12.75,15.75 C12.75,15.957 12.582375,16.125 12.375,16.125 L12.375,16.125 L7.5,16.125 C7.292625,16.125 7.125,15.957 7.125,15.75 C7.125,15.543 7.292625,15.375 7.5,15.375 L7.5,15.375 Z M11.25,13.125 C11.457375,13.125 11.625,13.293 11.625,13.5 C11.625,13.707 11.457375,13.875 11.25,13.875 L11.25,13.875 L7.5,13.875 C7.292625,13.875 7.125,13.707 7.125,13.5 C7.125,13.293 7.292625,13.125 7.5,13.125 L7.5,13.125 Z M16.194825,10.6571625 C16.315575,10.4887875 16.54995,10.4497875 16.71795,10.5697875 C16.886325,10.6901625 16.9257,10.9245375 16.80495,11.0929125 L16.80495,11.0929125 L14.92995,13.7179125 C14.922075,13.7291625 14.909325,13.7332875 14.900325,13.7434125 C14.88345,13.7625375 14.871075,13.7842875 14.8497,13.8000375 C14.8377,13.8090375 14.82345,13.8127875 14.8107,13.8202875 C14.798325,13.8274125 14.787075,13.8337875 14.77395,13.8394125 C14.72595,13.8607875 14.676075,13.8750375 14.62545,13.8750375 L14.62545,13.8750375 C14.5752,13.8750375 14.52645,13.8615375 14.4792,13.8412875 C14.466825,13.8360375 14.45595,13.8304125 14.444325,13.8236625 C14.43195,13.8169125 14.418825,13.8135375 14.4072,13.8052875 C14.3862,13.7902875 14.37345,13.7692875 14.356575,13.7512875 C14.3472,13.7411625 14.3337,13.7366625 14.325075,13.7250375 L14.325075,13.7250375 L13.200075,12.2250375 C13.075575,12.0592875 13.109325,11.8241625 13.275075,11.7000375 C13.440825,11.5751625 13.67595,11.6092875 13.800075,11.7750375 L13.800075,11.7750375 L14.617575,12.8651625 Z M11.625,11.625 C11.832375,11.625 12,11.793 12,12 C12,12.207 11.832375,12.375 11.625,12.375 L11.625,12.375 L7.5,12.375 C7.292625,12.375 7.125,12.207 7.125,12 C7.125,11.793 7.292625,11.625 7.5,11.625 L7.5,11.625 Z M12.375,10.125 C12.582375,10.125 12.75,10.293 12.75,10.5 C12.75,10.707 12.582375,10.875 12.375,10.875 L12.375,10.875 L7.5,10.875 C7.292625,10.875 7.125,10.707 7.125,10.5 C7.125,10.293 7.292625,10.125 7.5,10.125 L7.5,10.125 Z M11.25,5.625 C11.457375,5.625 11.625,5.793 11.625,6 L11.625,6 L11.625,8.25 C11.625,8.457 11.457375,8.625 11.25,8.625 L11.25,8.625 L7.5,8.625 C7.292625,8.625 7.125,8.457 7.125,8.25 L7.125,8.25 L7.125,6 C7.125,5.793 7.292625,5.625 7.5,5.625 L7.5,5.625 Z M10.875,6.375 L7.875,6.375 L7.875,7.875 L10.875,7.875 L10.875,6.375 Z M14.625,1.5 L9.375,1.5 L9.375,3.75 L14.625,3.75 L14.625,1.5 Z" id="path-1"></path>
    </defs>
    <g id="Symbols" stroke="none" stroke-width="1" fill="none" fill-rule="evenodd">
        <g id="icon/clipboard_alt_24px">
            <mask id="mask-2" fill="white">
                <use xlink:href="#path-1"></use>
            </mask>
            <g id="Mask" fill-rule="nonzero"></g>
            <g id="✱-/-Color-/-Icons-/-Selected-/-On-Surface-/-Inactive" mask="url(#mask-2)" fill="#000000" fill-opacity="0.54">
                <rect id="Rectangle" x="0" y="0" width="24" height="24"></rect>
            </g>
        </g>
    </g>
</svg>