<?xml version="1.0" encoding="UTF-8"?>
<svg width="24px" height="24px" viewBox="0 0 24 24" version="1.1" xmlns="http://www.w3.org/2000/svg" xmlns:xlink="http://www.w3.org/1999/xlink">
    <title>icon/delivery_office_24px</title>
    <defs>
        <path d="M21,1 C22.1045695,1 23,1.8954305 23,3 L23,3 L23,23 L1,23 L1,3 C1,1.8954305 1.8954305,1 3,1 L3,1 Z M21.22675,2 L2.77325,2 C2.346875,2 2,2.346875 2,2.77325 L2,2.77325 L2,22 L4,22 L4,11 L3.5,11 C3.22385763,11 3,10.7761424 3,10.5 L3,10.5 L3,7.5 C3,7.22385763 3.22385763,7 3.5,7 L3.5,7 L20.5,7 C20.7761424,7 21,7.22385763 21,7.5 L21,7.5 L21,10.5 C21,10.7761424 20.7761424,11 20.5,11 L20.5,11 L20,11 L20,22 L22,22 L22,2.77325 C22,2.346875 21.653125,2 21.22675,2 L21.22675,2 Z M19,11 L5,11 L5,22 L8.72727273,22 C8.32561109,22 8,21.6743889 8,21.2727273 L8,14.730909 C8,14.3292474 8.32561109,14.003636 8.72727273,14.003636 L10.999,14.003 L11,13.89 C11,13.7716533 11.0822334,13.6725132 11.1926773,13.6466027 L11.25,13.64 L12.75,13.64 C12.8880712,13.64 13,13.7519288 13,13.89 L13,13.89 L12.999,14.003 L15.2727273,14.003636 C15.6743889,14.003636 16,14.3292474 16,14.730909 L16,21.2727273 C16,21.6743889 15.6743889,22 15.2727273,22 L19,22 L19,11 Z M15,15.003636 L12.999,15.003 L13,16.0968779 C13,16.1061736 12.9987043,16.1153773 12.9961857,16.1242332 L12.9850339,16.1495015 C12.9559706,16.1964645 12.8943393,16.210975 12.8473764,16.1819118 L12.8473764,16.1819118 L12,15.6575089 L11.1526236,16.1819118 C11.1368146,16.1916952 11.1185914,16.1968918 11.1,16.1968918 C11.0447715,16.1968918 11,16.1521064 11,16.0968779 L11,16.0968779 L10.999,15.003 L9,15.003636 L9,21 L15,21 L15,15.003636 Z M20,8 L4,8 L4,10 L20,10 L20,8 Z M16.5,3 C16.7761424,3 17,3.22385763 17,3.5 L17,3.5 L17,5.5 C17,5.77614237 16.7761424,6 16.5,6 L16.5,6 L7.5,6 C7.22385763,6 7,5.77614237 7,5.5 L7,5.5 L7,3.5 C7,3.22385763 7.22385763,3 7.5,3 L7.5,3 Z M16,4 L8,4 L8,5 L16,5 L16,4 Z" id="path-1"></path>
    </defs>
    <g id="Symbols" stroke="none" stroke-width="1" fill="none" fill-rule="evenodd">
        <g id="icon/delivery_office_24px">
            <mask id="mask-2" fill="white">
                <use xlink:href="#path-1"></use>
            </mask>
            <g id="Mask" fill-rule="nonzero"></g>
            <g id="✱-/-Color-/-Icons-/-Selected-/-On-Surface-/-Inactive" mask="url(#mask-2)" fill="#000000" fill-opacity="0.54">
                <rect id="Rectangle" x="0" y="0" width="24" height="24"></rect>
            </g>
        </g>
    </g>
</svg>