<?xml version="1.0" encoding="UTF-8"?>
<svg width="24px" height="24px" viewBox="0 0 24 24" version="1.1" xmlns="http://www.w3.org/2000/svg" xmlns:xlink="http://www.w3.org/1999/xlink">
    <title>icon/delivery_package_24px</title>
    <defs>
        <path d="M13.50015,2.6248875 C13.70715,2.6248875 13.87515,2.7928875 13.87515,2.9998875 L13.87515,2.9998875 L13.87515,3.3748875 L17.2434,3.3748875 C17.8674,3.3748875 18.37515,3.8826375 18.37515,4.5066375 L18.37515,4.5066375 L18.37515,13.3438875 L20.0544,12.3167625 C21.7224,11.4388875 22.388775,11.4538875 23.046525,12.3696375 C23.379525,12.8338875 23.294025,13.4845125 22.8519,13.8512625 L22.8519,13.8512625 L22.8429,13.8580125 L17.15865,18.2845125 C16.79565,18.6265125 16.36815,18.8406375 15.9204,18.9032625 C15.761025,18.9392625 15.5814,18.9606375 15.4044,18.9628875 L15.4044,18.9628875 L10.54365,19.7012625 C9.788025,19.8167625 9.016275,19.8748875 8.25015,19.8748875 L8.25015,19.8748875 L3.37515,19.8748875 L3.37515,20.9998875 L0.75015,20.9998875 L0.75015,11.2498875 L3.37515,11.2498875 L3.37515,12.0370125 C3.75765,11.7936375 4.289025,11.4906375 4.87515,11.2562625 L4.87515,11.2562625 L4.87515,4.5066375 C4.87515,3.8826375 5.382525,3.3748875 6.006525,3.3748875 L6.006525,3.3748875 L9.37515,3.3748875 L9.37515,2.9998875 C9.37515,2.7928875 9.542775,2.6248875 9.75015,2.6248875 L9.75015,2.6248875 Z M2.62515,11.9998875 L1.50015,11.9998875 L1.50015,20.2498875 L2.62515,20.2498875 L2.62515,11.9998875 Z M6.5199,11.6357625 C6.468525,11.6361375 6.415275,11.6387625 6.361275,11.6428875 L6.31336875,11.64645 L6.31336875,11.64645 L6.2649,11.6511375 C6.19065,11.6593875 6.114525,11.6702625 6.035775,11.6852625 L6.035775,11.6852625 L6.001275,11.6916375 C5.8059,11.7306375 5.597775,11.7891375 5.37615,11.8682625 C5.3664,11.8716375 5.356275,11.8723875 5.346525,11.8750125 C4.575525,12.1536375 3.82365,12.6145125 3.37515,12.9381375 L3.37515,12.9381375 L3.37515,19.1248875 L8.25015,19.1248875 C8.9784,19.1248875 9.712275,19.0693875 10.430775,18.9602625 L10.430775,18.9602625 L15.37515,18.2128875 C15.506775,18.2128875 15.6429,18.1975125 15.7794,18.1671375 C16.112775,18.1191375 16.403025,17.9695125 16.65465,17.7291375 L16.65465,17.7291375 L16.683525,17.7040125 L22.376775,13.2703875 C22.514025,13.1533875 22.54065,12.9508875 22.43715,12.8068875 C22.126275,12.3741375 21.970275,12.1558875 20.424525,12.9685125 L20.424525,12.9685125 L18.197025,14.3308875 L18.197025,14.3308875 L18.195525,14.3320125 L17.192775,14.9451375 C17.0934,14.9980125 16.9809,15.0433875 16.862025,15.0850125 C16.8234,15.0988875 16.781025,15.1101375 16.74015,15.1225125 C16.65465,15.1487625 16.56615,15.1735125 16.4724,15.1948875 C16.4229,15.2065125 16.372275,15.2173875 16.3209,15.2275125 C16.2234,15.2466375 16.121775,15.2638875 16.01715,15.2792625 C15.9684,15.2863875 15.920775,15.2942625 15.87015,15.3006375 C15.72015,15.3193875 15.564525,15.3355125 15.4029,15.3478875 C15.3969,15.3486375 15.392025,15.3490125 15.386025,15.3497625 C15.2124,15.3628875 15.031275,15.3718875 14.846025,15.3786375 C14.8014,15.3805125 14.75565,15.3812625 14.71065,15.3827625 C14.564025,15.3872625 14.415525,15.3906375 14.264025,15.3921375 C14.216025,15.3925125 14.168025,15.3928875 14.120025,15.3932625 C14.05815,15.3936375 13.99815,15.3947625 13.935525,15.3947625 L13.8488063,15.3939656 L13.8488063,15.3939656 L13.761525,15.3928875 C13.514025,15.3917625 13.26315,15.3891375 13.00815,15.3846375 L13.00815,15.3846375 L12.9189,15.3838875 L12.701775,15.3801375 C12.500025,15.3876375 12.339525,15.3801375 12.257025,15.3748875 L12.257025,15.3748875 L8.62515,15.3748875 C7.50015,15.3748875 7.50015,15.9392625 7.50015,16.1248875 C7.50015,16.3322625 7.33215,16.4998875 7.12515,16.4998875 C6.917775,16.4998875 6.75015,16.3322625 6.75015,16.1248875 C6.75015,15.1855125 7.451025,14.6248875 8.62515,14.6248875 L8.62515,14.6248875 L12.3842889,14.6254431 C12.4643167,14.6261375 12.5504,14.6273875 12.64065,14.6286375 C12.793275,14.6241375 12.9294,14.6121375 13.05015,14.5952625 C13.0839,14.5900125 13.116525,14.5843875 13.148775,14.5787625 C13.168275,14.5750125 13.188525,14.5716375 13.2069,14.5678875 C13.2444,14.5603875 13.280025,14.5517625 13.314525,14.5431375 L13.314525,14.5431375 L13.358775,14.5311375 C13.38765,14.5232625 13.414275,14.5142625 13.440525,14.5052625 C13.45965,14.4985125 13.478775,14.4921375 13.496025,14.4850125 C13.514025,14.4778875 13.5309,14.4700125 13.5474,14.4621375 C13.566525,14.4531375 13.585275,14.4437625 13.6014,14.4343875 C13.6149,14.4265125 13.626525,14.4186375 13.637775,14.4103875 C13.6509,14.4010125 13.6644,14.3916375 13.6749,14.3822625 C13.688775,14.3695125 13.700025,14.3560125 13.709775,14.3421375 L13.709775,14.3421375 L13.721775,14.3267625 C13.730775,14.3106375 13.732275,14.2881375 13.734525,14.2660125 C13.735275,14.2566375 13.7394,14.2498875 13.739025,14.2397625 C13.738275,14.2123875 13.730025,14.1801375 13.7214,14.1471375 C13.718775,14.1373875 13.718775,14.1302625 13.715775,14.1201375 C13.70415,14.0841375 13.6854,14.0436375 13.665525,14.0023875 L13.665525,14.0023875 L13.65315,13.9738875 C13.62615,13.9213875 13.59315,13.8655125 13.553775,13.8070125 C13.106025,13.1383875 12.33165,12.7393875 11.4819,12.7393875 L11.4819,12.7393875 L10.019025,12.7393875 C9.062775,12.7393875 8.139525,12.4401375 7.41915,11.8975125 C7.3569,11.8506375 7.290525,11.8116375 7.22115,11.7778875 C7.199025,11.7673875 7.17465,11.7595125 7.151775,11.7501375 C7.103025,11.7298875 7.0539,11.7103875 7.00215,11.6957625 L7.00215,11.6957625 L6.91065,11.6751375 C6.8634,11.6650125 6.815775,11.6556375 6.76665,11.6496375 C6.728775,11.6447625 6.6894,11.6425125 6.64965,11.6402625 C6.6069,11.6380125 6.563775,11.6357625 6.5199,11.6357625 Z M9.37515,4.1248875 L6.006525,4.1248875 C5.79615,4.1248875 5.62515,4.2958875 5.62515,4.5066375 L5.62515,4.5066375 L5.62515,11.0080125 C5.6499,11.0016375 5.673525,10.9982625 5.698275,10.9922625 C5.726025,10.9858875 5.753775,10.9802625 5.781525,10.9742625 C5.891775,10.9502625 5.999775,10.9311375 6.10515,10.9172625 C6.119025,10.9153875 6.132525,10.9135125 6.146025,10.9120125 C6.347025,10.8872625 6.538275,10.8808875 6.719775,10.8928875 C6.735525,10.8940125 6.751275,10.8947625 6.767025,10.8962625 C6.8259,10.9011375 6.884775,10.9071375 6.941775,10.9157625 C6.95265,10.9176375 6.963525,10.9202625 6.9744,10.9221375 C7.06965,10.9382625 7.161525,10.9603875 7.250775,10.9877625 L7.250775,10.9877625 L7.36215,11.0237625 C7.39665,11.0365125 7.4304,11.0503875 7.463775,11.0650125 C7.508025,11.0837625 7.551525,11.1051375 7.59465,11.1272625 C7.620525,11.1407625 7.646775,11.1535125 7.6719,11.1685125 C7.739775,11.2075125 7.80615,11.2498875 7.87065,11.2982625 C8.462025,11.7441375 9.224775,11.9893875 10.019025,11.9893875 L10.019025,11.9893875 L11.4819,11.9893875 C12.58215,11.9893875 13.5894,12.5125125 14.177025,13.3892625 C14.497275,13.8677625 14.5734,14.2888875 14.403525,14.6417625 C15.357525,14.6252625 16.34115,14.5487625 16.82115,14.2937625 L16.82115,14.2937625 L17.62515,13.8017625 L17.62515,4.5066375 C17.62515,4.2958875 17.453775,4.1248875 17.2434,4.1248875 L17.2434,4.1248875 L13.87515,4.1248875 L13.87515,6.4221375 C13.87515,6.6988875 13.720275,6.9448875 13.4709,7.0645125 C13.4139,7.0918875 13.3539,7.1091375 13.2939,7.1207625 C13.27665,7.1241375 13.259775,7.1248875 13.242525,7.1267625 C13.21515,7.1297625 13.18815,7.1361375 13.160775,7.1361375 C13.148775,7.1361375 13.13715,7.1305125 13.12515,7.1297625 C13.07715,7.1275125 13.031025,7.1181375 12.98415,7.1057625 C12.959775,7.0993875 12.9354,7.0960125 12.911775,7.0870125 C12.84315,7.0611375 12.776775,7.0266375 12.71715,6.9790125 L12.71715,6.9790125 L11.62515,6.1052625 L10.53315,6.9790125 C10.31715,7.1511375 10.028025,7.1841375 9.779025,7.0645125 C9.52965,6.9448875 9.37515,6.6988875 9.37515,6.4221375 L9.37515,6.4221375 L9.37515,4.1248875 Z M13.12515,3.3748875 L10.12515,3.3748875 L10.12515,6.3445125 L11.390775,5.3320125 C11.52765,5.2228875 11.722275,5.2228875 11.85915,5.3320125 L11.85915,5.3320125 L13.12515,6.3445125 L13.12515,3.3748875 Z" id="path-1"></path>
    </defs>
    <g id="Symbols" stroke="none" stroke-width="1" fill="none" fill-rule="evenodd">
        <g id="icon/delivery_package_24px">
            <mask id="mask-2" fill="white">
                <use xlink:href="#path-1"></use>
            </mask>
            <g id="Mask" fill-rule="nonzero"></g>
            <g id="✱-/-Color-/-Icons-/-Selected-/-On-Surface-/-Inactive" mask="url(#mask-2)" fill="#000000" fill-opacity="0.54">
                <rect id="Rectangle" x="0" y="0" width="24" height="24"></rect>
            </g>
        </g>
    </g>
</svg>