<?xml version="1.0" encoding="UTF-8"?>
<svg width="465px" height="356px" viewBox="0 0 465 356" version="1.1" xmlns="http://www.w3.org/2000/svg" xmlns:xlink="http://www.w3.org/1999/xlink">
    <!-- Generator: Sketch 62 (91390) - https://sketch.com -->
    <title>illustration</title>
    <desc>Created with Sketch.</desc>
    <defs>
        <polygon id="path-1" points="0.781458228 0.299055616 95.9354262 0.299055616 95.9354262 55.3234835 0.781458228 55.3234835"></polygon>
        <polygon id="path-3" points="0.107091983 0.525670886 99.851038 0.525670886 99.851038 37.2022278 0.107091983 37.2022278"></polygon>
    </defs>
    <g id="Page-1" stroke="none" stroke-width="1" fill="none" fill-rule="evenodd">
        <g id="Forgot-Password" transform="translate(-246.000000, -333.000000)">
            <g id="illustration" transform="translate(246.000000, 333.000000)">
                <path d="M145.249033,336.708746 C138.206805,335.75921 127.009134,334.414197 127.01207,340.111413 C127.014029,342.260105 136.948915,344.328527 138.592493,344.724982 C143.676915,345.952527 148.439278,347.765455 153.40721,349.599919 C162.625539,353.004543 170.008425,348.417404 162.708746,343.275227 C156.690451,339.034619 150.92667,337.474248 145.249033,336.708746 M298.927008,349.2064 C298.437556,349.664527 297.973556,350.163767 297.678906,350.756003 C296.87229,352.377067 297.703379,354.572746 299.435058,355.275598 C300.305303,355.628003 301.283227,355.621151 302.228847,355.609404 C310.324375,355.499767 319.026822,355.203159 325.494434,350.557286 C326.28343,349.990501 327.099835,349.194653 326.959851,348.261759 C326.790501,347.132105 325.389691,346.644611 324.217944,346.418484 C316.125354,344.855176 305.431818,343.108814 298.927008,349.2064 M434.872155,223.493725 C433.909894,223.885286 432.929033,224.379632 432.376932,225.227362 C431.946214,225.890079 431.829725,226.689843 431.743581,227.466113 C431.564442,229.081303 431.473404,230.706282 431.471432,232.330282 C431.469489,234.108949 431.662332,236.081438 433.027902,237.292341 C434.870197,238.923193 437.794181,238.351514 440.206197,237.679008 C441.564915,237.299193 443.015649,236.863581 443.88883,235.799514 C444.528054,235.021286 444.762012,234.015953 444.937235,233.041944 C445.521641,229.794923 447.309117,224.876915 445.327818,223.196138 C443.345539,221.514383 438.322788,222.087041 434.872155,223.493725 M41.3795983,124.641168 C40.3272776,121.432324 37.8408641,119.836712 34.0789401,121.664324 C31.8343156,122.754822 30.2700287,124.781151 28.9289316,126.814332 C26.7635983,130.097573 24.9017249,133.849708 25.3569148,137.703649 C25.6887629,140.512122 27.3098262,143.160054 29.7110751,144.818316 C30.6958515,145.497674 31.860746,146.02824 33.0765435,145.987126 C34.4107882,145.943075 35.6148388,145.223581 36.651497,144.419902 C39.0987544,142.519851 40.9821637,140.053995 42.8371848,137.618484 C43.7994464,136.3557 44.7930329,135.01656 44.9770667,133.464999 C45.3686278,130.177843 42.3467544,127.593539 41.3795983,124.641168 M95.055784,36.873708 C93.6324591,35.9408135 91.7979949,36.4782312 90.3825013,37.206535 C90.0751257,37.3660962 89.759919,37.579497 89.6708388,37.9015561 C89.4848473,38.5711257 90.3315983,39.0458937 91.0217249,39.2612523 C92.0965603,39.597016 93.2673283,39.9249485 94.3353114,39.5696068 C95.4042734,39.214265 96.4771511,37.8056236 95.055784,36.873708 M106.569641,30.529438 C106.191784,30.7350076 105.996003,31.1392945 105.767919,31.4936574 C104.98186,32.7114127 103.623143,33.4886616 102.235058,34.0309738 C101.422569,34.3500962 100.54743,34.624189 99.947362,35.2369823 C98.9939105,36.2109907 99.1104,37.9485435 100.185235,38.7992101 C101.054501,39.4864 102.280088,39.5549232 103.407784,39.4991257 C107.626856,39.2906194 111.762721,37.7459105 115.007784,35.1655224 C119.278738,31.769708 108.919008,29.257843 106.569641,30.529438 M226.124037,17.1732861 C226.124037,19.9259612 226.124037,24.6501468 238.260476,23.8777924 C241.984223,23.6408979 245.018822,21.6458937 245.018822,18.8922397 C245.018822,16.1395646 241.993033,13.9076658 238.260476,13.9076658 C234.527919,13.9076658 226.124037,12.7740962 226.124037,17.1732861 M435.887278,128.086906 C442.387193,139.901286 451.837522,151.043159 452.654906,164.361134 C453.966636,185.756037 433.107193,201.885421 424.578012,221.712122 C414.106687,246.050586 422.888425,274.72559 413.620172,299.501624 C406.903919,317.458619 390.428982,331.800527 371.069219,336.547227 C356.55894,340.10456 341.297843,338.497202 326.317691,338.644037 C283.786316,339.057134 241.419396,353.764172 199.467531,347.088054 C178.751986,343.79013 159.167075,335.37548 138.356577,332.675666 C113.401404,329.438434 84.3240709,333.353067 66.489438,316.393573 C41.5744,292.699227 60.0717502,249.133151 41.372746,220.706788 C35.3515139,211.553067 25.6515646,204.391413 22.3996489,194.039514 C18.5995477,181.942231 24.7558684,169.051058 32.4001215,158.740273 C40.0443747,148.42851 49.502535,138.932172 53.6432945,126.937674 C57.4022819,116.045421 55.1067544,104.20559 50.4824169,93.6216911 C43.3990751,77.4051848 63.1171173,40.222535 102.232122,43.0094717 C120.162687,44.2869401 128.232763,23.518535 147.90186,17.7616068 C170.422501,11.1706532 198.695176,16.4694549 215.289539,21.9845941 C232.149185,27.5878346 252.991986,30.5333536 262.656695,16.215919 C276.302603,-3.998427 316.981894,-7.16224135 335.247244,25.6652692 C341.919446,37.6558515 347.860408,46.9857755 362.060375,46.0705013 C439.018788,41.1113789 426.228442,110.528324 435.887278,128.086906" id="Fill-1" fill="#C8EEFB"></path>
                <path d="M376.61999,202.095298 C376.61999,202.095298 392.979416,200.601492 408.483281,194.25037 C408.973711,194.049695 409.270319,197.38188 409.270319,197.38188 C409.270319,197.38188 411.553121,192.926893 412.346032,192.552952 C420.737188,188.595247 428.433323,183.081087 432.55842,175.446623 C432.55842,175.446623 434.590623,222.25972 374.413543,232.656648 L376.61999,202.095298 Z" id="Fill-4" fill="#5084DA"></path>
                <path d="M396.631997,255.497097 C396.631997,255.497097 416.49198,266.024219 455.328976,267.853789 C455.328976,267.853789 428.908385,291.964169 368.457212,283.663072 L370.43949,256.204844 L396.631997,255.497097 Z" id="Fill-6" fill="#5084DA"></path>
                <g id="Group-10" transform="translate(368.067511, 210.735291)">
                    <mask id="mask-2" fill="white">
                        <use xlink:href="#path-1"></use>
                    </mask>
                    <g id="Clip-9"></g>
                    <path d="M0.781458228,18.0351122 C0.781458228,18.0351122 9.74527257,12.3075511 24.2976439,7.36311224 C24.8781333,7.16537384 26.1056776,10.5954498 26.1056776,10.5954498 C26.1056776,10.5954498 28.0938295,6.12871561 29.1441924,5.81448776 C46.5275511,0.607702954 70.3158717,-2.7900692 95.9357198,4.44108692 C95.9357198,4.44108692 88.1739983,15.25307 72.2873823,27.0899646 C71.6099814,27.5950785 67.1226903,27.1956861 67.1226903,27.1956861 C67.1226903,27.1956861 69.0070785,29.4667409 68.3874329,29.8964793 C53.2917705,40.3942346 31.8890363,51.0887494 3.93450464,55.3234835 L0.781458228,18.0351122 Z" id="Fill-8" fill="#5193F4" mask="url(#mask-2)"></path>
                </g>
                <g id="Group-22" transform="translate(364.151899, 214.650903)">
                    <g id="Group-13">
                        <mask id="mask-4" fill="white">
                            <use xlink:href="#path-3"></use>
                        </mask>
                        <g id="Clip-12"></g>
                        <path d="M99.8514295,0.525670886 C92.361843,5.35851477 84.4836321,9.57660759 76.465438,13.4804726 C68.4501806,17.3970633 60.2068388,20.839865 51.8607122,23.9948692 C47.6935224,25.5934177 43.4323578,26.9305992 39.2083916,28.3627342 L32.7955983,30.2833418 C31.7256574,30.5975696 30.6615899,30.9343122 29.5867544,31.228962 L26.3397333,32.0434093 C17.7244084,34.3771139 8.92113418,35.9433586 0.107091983,37.2022278 L6.65007932,35.8542785 L9.921573,35.193519 C11.0071764,34.9536878 12.0829907,34.6668692 13.1636996,34.406481 L19.6518684,32.8598143 L26.0803241,31.0821266 C30.3747713,29.9387679 34.593843,28.5281688 38.8461975,27.2409114 C43.0427544,25.7774515 47.2706363,24.4060084 51.4084591,22.7810295 C59.7604591,19.7415359 67.9626869,16.2938397 76.0425519,12.5828186 C80.0873789,10.7366076 84.0940287,8.80523207 88.0644591,6.79750211 C92.0436996,4.80739241 95.973016,2.7174346 99.8514295,0.525670886" id="Fill-11" fill="#5084DA" mask="url(#mask-4)"></path>
                    </g>
                    <path d="M45.5251544,25.62347 C47.1824371,24.0738667 48.7907747,22.496854 50.3971544,20.9286515 C51.9878717,19.3438076 53.5570532,17.7472169 55.0665215,16.0977654 C56.5926312,14.4620186 58.0198717,12.7450228 59.4255764,11.0055122 C60.7999561,9.24152911 62.0960236,7.41979072 63.3362937,5.51288776 C62.5502346,7.64102278 61.5106397,9.69574008 60.245897,11.5967696 C58.9782177,13.4948624 57.5588084,15.2911494 56.019973,16.9729046 C52.9109772,20.2992169 49.4427241,23.3093435 45.5251544,25.62347" id="Fill-14" fill="#5084DA"></path>
                    <path d="M21.4722363,32.8409215 C23.2695021,31.6672169 24.9140591,30.3319932 26.4861772,28.9350987 C28.0465485,27.5254785 29.5207764,26.0297148 30.8305485,24.3988624 C32.1647932,22.7905249 33.3825485,21.0803814 34.4338903,19.2635376 C35.5331983,17.4672506 36.4122532,15.5476219 37.3167595,13.5927527 C36.8958312,15.6895629 36.3094684,17.8010565 35.3266498,19.7383055 C34.4231224,21.7166684 33.1985148,23.5374278 31.8280506,25.2230987 C30.4448608,26.9038751 28.8678481,28.4221536 27.1244219,29.7143055 C25.3976371,31.0191831 23.4985654,32.1135966 21.4722363,32.8409215" id="Fill-16" fill="#5084DA"></path>
                    <path d="M45.5251544,25.62347 C48.6507916,25.7468118 51.692243,25.7937992 54.7297789,25.5774616 C56.2490363,25.4981705 57.7585046,25.3190312 59.2669941,25.1007359 C60.7862515,24.9049553 62.2702684,24.554508 63.8218295,24.2745418 C62.4680068,25.0576641 61.0045468,25.6978667 59.4774582,26.0894278 C57.9572219,26.5211241 56.3890194,26.7648709 54.8139646,26.8686346 C53.2398886,26.9586937 51.6579814,26.9420523 50.0966312,26.7345249 C48.5372388,26.5397232 46.9866565,26.2108118 45.5251544,25.62347" id="Fill-18" fill="#5084DA"></path>
                    <path d="M21.9608068,32.8753789 C23.8295325,33.0995477 25.6835747,33.2786869 27.5278278,33.469573 C29.3730599,33.6379443 31.2133975,33.792611 33.0556928,33.872881 C34.8970093,33.963919 36.7344101,33.95413 38.5767055,33.9051848 C40.4160641,33.8072945 42.2495494,33.6389232 44.1163173,33.3511257 C42.3983426,34.1215224 40.5491949,34.6422987 38.6706802,34.911497 C36.7902076,35.1709063 34.8881992,35.2374717 32.9969586,35.1660118 C29.2242667,34.9535899 25.4643004,34.2859781 21.9608068,32.8753789" id="Fill-20" fill="#5084DA"></path>
                </g>
                <path d="M426.375767,187.610569 C424.774282,192.001927 421.948189,195.871531 418.743261,199.278113 C415.517776,202.6984 411.71278,205.529387 407.677742,207.923784 L404.574619,209.584003 C403.543835,210.146873 402.438653,210.553117 401.371649,211.035716 C399.240577,212.021472 396.995953,212.708662 394.771885,213.426197 C393.670619,213.823632 392.515514,214.034096 391.383902,214.319936 L387.979278,215.129489 C385.673961,215.490704 383.366687,215.828425 381.063328,216.118181 C383.322636,215.537691 385.59467,215.079565 387.837337,214.509843 L391.166586,213.53094 C392.270788,213.191261 393.398484,212.926957 394.46451,212.477641 C396.612223,211.630889 398.819649,210.951531 400.878282,209.911936 C401.91494,209.412695 403.002501,209.019176 404.003919,208.454349 L407.029708,206.80294 C410.992307,204.484898 414.718012,201.759632 418.038451,198.580155 C418.864645,197.780392 419.69867,196.984543 420.440678,196.10451 C420.819514,195.671835 421.21597,195.252864 421.583058,194.809421 L422.649084,193.449725 C424.070451,191.63386 425.349877,189.69759 426.375767,187.610569" id="Fill-23" fill="#605ACA"></path>
                <path d="M442.641414,271.159544 C439.921043,271.682278 437.16641,272.004338 434.413735,272.327376 C431.655186,272.595595 428.889786,272.795291 426.118511,272.936253 C420.576942,273.207409 415.016773,273.081131 409.473246,272.700338 C406.704908,272.465401 403.940486,272.148236 401.194663,271.706751 C398.447862,271.289738 395.706933,270.784624 393.017887,270.065131 C387.638815,268.671173 382.352739,266.728051 377.617786,263.833435 C380.115946,265.027696 382.667946,266.080996 385.292385,266.920895 C387.90214,267.796034 390.560841,268.51357 393.248908,269.096017 C398.621127,270.271679 404.086343,271.006835 409.575051,271.410143 C415.059845,271.8947 420.575963,272.001401 426.091102,271.944624 C431.60722,271.87708 437.126275,271.631376 442.641414,271.159544" id="Fill-25" fill="#4CA1FF"></path>
                <path d="M416.611602,280.861549 C412.996513,281.149347 409.300176,280.366224 405.981695,278.760824 C404.336159,277.919946 402.812007,276.812807 401.538454,275.467794 C400.244344,274.128655 399.370184,272.4469 398.80242,270.74263 C399.832226,272.239372 400.920766,273.607878 402.243264,274.743406 C403.574572,275.85544 405.005728,276.831406 406.564142,277.60376 C408.117661,278.383946 409.755365,279.00457 411.434184,279.54003 C413.119855,280.051018 414.83783,280.519912 416.611602,280.861549" id="Fill-27" fill="#4CA1FF"></path>
                <path d="M402.133627,281.722886 C398.542032,281.21973 395.103146,279.657401 392.210488,277.369705 C390.786184,276.193063 389.539062,274.782464 388.58561,273.193705 C387.612581,271.605924 387.123129,269.775376 386.937138,267.987899 C387.619433,269.672591 388.385914,271.24373 389.430403,272.638667 C390.488597,274.012068 391.676007,275.274852 393.02983,276.366329 C394.377779,277.463679 395.842218,278.424962 397.365391,279.311848 C398.900311,280.174262 400.476344,281.00535 402.133627,281.722886" id="Fill-29" fill="#4CA1FF"></path>
                <path d="M243.422231,321.297681 C237.378484,314.334744 228.186586,310.208668 218.964341,310.330052 C212.156071,310.419132 205.470164,312.682356 198.676577,312.265343 C191.539396,311.836584 184.635193,308.299808 180.121472,302.746491 C175.60775,297.193175 173.542265,289.723166 174.57305,282.641782 C175.360088,277.258795 178.175413,271.853293 183.050349,269.444213 C185.706113,268.134441 188.776932,267.807487 191.727345,268.07277 C194.451632,268.317495 197.05943,269.056567 199.522349,270.157833 C205.159851,272.65893 210.061219,277.067909 213.979767,281.935993 C217.5371,286.362592 225.661995,292.875234 231.154619,297.079622 C234.37521,299.534711 236.697168,301.195909 236.697168,301.195909 C240.569708,304.775757 240.771362,316.735993 243.422231,321.297681" id="Fill-31" fill="#52D2BC"></path>
                <path d="M183.762697,284.564935 C200.873921,289.438893 219.774579,296.346032 233.135625,308.095804" id="Stroke-33" stroke="#00AD9F" stroke-linecap="round" stroke-linejoin="round"></path>
                <path d="M294.037485,282.156834 C293.784928,284.999568 293.201502,287.905931 291.822228,290.489256 C290.868776,292.268901 289.577603,293.827315 288.118059,295.209526 C287.366262,295.927062 286.561603,296.595652 285.744219,297.221171 C282.564743,299.642977 279.028945,301.497019 275.35708,302.668766 C270.006397,304.371078 264.277857,304.688243 259.359848,307.704243 C257.104456,309.085475 255.126093,311.009998 253.606835,313.251686 C252.655342,314.644665 251.886903,316.162943 251.340675,317.747787 L251.320118,312.956057 C251.843831,307.650403 252.381249,302.24588 254.358633,297.175163 C255.634143,293.888986 257.477418,290.825998 259.493958,287.920614 C262.715527,283.268868 266.417738,278.934285 270.69065,275.330943 C274.146177,272.417728 278.101924,269.943062 282.324911,269.314606 C286.542025,268.681256 291.031274,270.242606 292.96265,273.9595 C294.203899,276.347045 294.293958,279.306268 294.037485,282.156834" id="Fill-35" fill="#5193F4"></path>
                <path d="M254.28962,308.478262 C257.298768,301.357722 262.495764,295.084911 268.835139,290.920658 C272.785992,288.327544 277.115679,286.554751 281.148759,284.124135 C285.18184,281.693519 289.065148,278.389722 290.956388,273.958228" id="Stroke-37" stroke="#0B43A4" stroke-linecap="round" stroke-linejoin="round"></path>
                <path d="M247.705911,312.840351 C255.232695,305.373279 265.90959,301.952014 276.404408,300.446461 C285.159716,299.191507 294.353573,299.14452 302.542096,302.486495 C305.107801,303.532942 307.637286,304.98857 309.153607,307.306613 C310.670906,309.624655 310.886265,312.971524 309.033202,315.031136 C307.470873,316.768689 304.931598,317.191575 302.594957,317.27576 C294.907632,317.551811 287.385742,315.316976 279.85602,313.738984 C266.913944,311.025465 252.820678,310.371558 241.055244,316.408452" id="Fill-39" fill="#52D2BC"></path>
                <path d="M257.090555,308.913286 C272.668817,302.342889 295.16988,304.459278 304.984361,311.250906" id="Stroke-41" stroke="#00AD9F" stroke-linecap="round" stroke-linejoin="round"></path>
                <path d="M72.8302819,232.503352 C65.7909907,229.121242 62.4167122,220.108483 56.6333536,218.171234 C49.4648473,215.69363 47.4551595,223.701057 35.8659274,221.720736 C26.1395477,220.059538 23.1842397,209.120297 6.9246616,212.504365 C1.95966582,213.538086 -1.33630042,217.735622 0.528509705,222.77012 C1.92246751,227.779166 8.82079662,230.948854 12.9272945,233.506727 C16.5678346,235.562424 19.7903831,236.664668 21.9478852,240.487284 C21.9704,240.527419 21.9929148,240.570491 22.0124928,240.611605 C23.4642059,243.718643 22.8846954,246.488938 26.2746363,248.761951 C34.2164759,254.57174 44.1082903,245.346559 53.1425857,245.616736 C59.5132861,245.807622 59.3351257,252.424027 66.9969992,254.33974 C74.583497,256.235875 72.0951257,249.444246 88.0111089,255.612314 C88.5827882,255.834525 89.2288641,255.547706 89.4491173,254.975048 C89.6018262,254.575656 89.5107882,254.120466 89.2141806,253.812111 C78.0732861,242.151419 83.1909907,237.483031 72.8302819,232.503352" id="Fill-43" fill="#4A84D8"></path>
                <path d="M72.8302819,232.503352 C65.7909907,229.121242 62.4167122,220.108483 56.6333536,218.171234 C49.4648473,215.69363 47.4551595,223.701057 35.8659274,221.720736 C26.1395477,220.059538 23.1842397,209.120297 6.9246616,212.504365 C1.95966582,213.538086 -1.33630042,217.735622 0.528509705,222.77012 C1.92246751,227.779166 8.82079662,230.948854 12.9272945,233.506727 C16.5678346,235.562424 19.7903831,236.664668 21.9478852,240.487284 C21.9704,240.527419 21.9929148,240.570491 22.0124928,240.611605 C23.4642059,243.718643 22.8846954,246.488938 26.2746363,248.761951 C34.2164759,254.57174 44.1082903,245.346559 53.1425857,245.616736 C59.5132861,245.807622 59.3351257,252.424027 66.9969992,254.33974 C74.583497,256.235875 72.0951257,249.444246 88.0111089,255.612314 C88.5827882,255.834525 89.2288641,255.547706 89.4491173,254.975048 C89.6018262,254.575656 89.5107882,254.120466 89.2141806,253.812111 C78.0732861,242.151419 83.1909907,237.483031 72.8302819,232.503352" id="Fill-45" fill="#00AD9F"></path>
                <path d="M81.8387342,247.701212 C76.8512236,245.241229 73.7255865,240.397617 69.252,237.239676 C67.1395274,235.749786 64.6805232,234.57706 62.0570633,234.484064 C59.1311224,234.382258 56.1670042,235.886832 53.284135,234.894224 C51.0835612,234.137532 49.4546667,232.324604 47.4244219,231.251727 C46.4102785,230.715288 45.3334852,230.405954 44.1803376,230.426511 C42.6415021,230.452942 41.1653165,230.968824 39.6352911,231.089229 C34.4187173,231.499389 30.316135,227.158933 26.4563207,224.318157 C21.3562363,220.565043 15.1411814,218.567102 8.80865823,218.653246 C8.44352743,218.65814 8.60700422,219.616486 9.01716456,219.610613 C14.7437468,219.5323 20.4654346,221.215035 25.222903,224.409195 C29.2109536,227.086495 32.8465992,231.294798 37.8429198,231.987862 C39.1575865,232.170916 40.4389705,232.006461 41.7330802,231.754883 C43.1564051,231.477853 44.5875612,231.19495 46.0157806,231.604132 C48.2467004,232.243355 49.9039831,234.05922 51.8813671,235.182022 C52.9405401,235.783068 54.0721519,236.157988 55.2957806,236.193229 C56.744557,236.234343 58.1620084,235.893684 59.5823966,235.657769 C61.0155105,235.418916 62.4270886,235.355288 63.8572658,235.657769 C65.1846582,235.938714 66.4435274,236.473195 67.6172321,237.148638 C72.9297384,240.202815 76.1953586,245.857938 81.7339916,248.589077 C82.1823291,248.810309 82.16373,247.861752 81.8387342,247.701212" id="Fill-47" fill="#4CA1FF"></path>
                <path d="M141.357796,279.833897 C118.19891,282.282133 114.494741,284.282032 108.942403,281.882741 C101.865914,278.823669 94.4301671,279.582319 87.2969013,276.659315 C80.1646143,273.735332 72.4185553,271.501475 64.8095426,272.736851 C62.4043781,273.127433 59.7349097,274.104378 59.399146,276.926555 C59.2650363,278.059146 59.6291882,279.203484 60.2928844,280.129526 C61.9687662,282.467146 64.7077367,283.252226 67.3263021,283.973678 L76.0816101,286.388631 C78.9292388,287.17469 78.7471629,291.368311 75.8231797,291.78826 C75.7987072,291.792176 75.7742346,291.795112 75.749762,291.799028 C73.2976101,292.131855 70.8141333,291.644361 68.3972219,291.110859 C63.1395342,289.945965 57.8720574,288.530471 52.4871122,288.52264 C45.9705553,288.51383 39.0624371,290.867112 35.8398886,296.943163 C34.69653,299.097728 34.2677705,301.599804 34.6740152,304.00399 C35.8095426,310.725138 42.0950785,312.967804 47.6660152,312.464648 C51.5855426,312.111264 55.2906903,310.596901 58.9919224,309.257762 C68.0320911,305.987247 75.7673823,309.593526 85.3762937,309.844125 C111.899669,310.534251 141.357796,279.833897 141.357796,279.833897" id="Fill-49" fill="#7EE8D4"></path>
                <path d="M41.8724759,301.028516 C58.3620962,299.145107 74.9731004,297.237225 90.79413,292.222305 C95.43413,290.751993 101.41229,290.34477 114.510012,280.678103" id="Stroke-51" stroke="#00AD9F" stroke-linecap="round" stroke-linejoin="round"></path>
                <path d="M68.5829198,205.398116 C69.1320844,205.826876 69.7067004,206.179281 70.3067679,206.4661 C73.1367764,207.862015 76.3779241,208.054859 78.6294008,210.595112 C80.1329958,212.192682 80.947443,214.3355 82.0702447,216.237509 C82.299308,216.659416 82.5577384,217.059787 82.8406414,217.443517 C86.3216203,222.217627 89.7477806,222.771686 93.4118143,222.689458 C94.9154093,222.653239 96.471865,222.50934 98.0713924,222.510319 C100.519629,222.508361 103.124489,222.824547 105.929046,224.36534 C107.699882,225.31977 109.550987,226.764631 111.507814,228.905492 C111.859241,229.286285 112.489654,229.319568 112.988895,229.001424 C113.435274,228.708732 113.661401,228.187956 113.564489,227.720041 C112.583629,223.313019 110.666937,220.420361 108.359662,218.247197 C101.873451,212.108496 92.2968439,211.621003 91.7163544,198.949104 C91.5939916,196.235585 92.1705654,194.310083 91.7369114,192.37577 C91.5147004,191.401762 91.0330802,190.422859 90.0776709,189.336277 C88.1169283,187.222825 85.2967089,186.287973 82.7828861,184.597408 C75.9795105,179.744986 79.222616,171.804125 78.6186329,164.248952 C78.2133671,158.081863 72.6678819,154.067382 68.1336034,150.574657 C62.4647764,146.402572 62.4775021,138.877745 58.6509705,133.285273 C54.8332489,127.687905 45.3281013,125.433492 40.2701097,132.954403 C34.900827,140.462589 37.8492827,149.848311 39.3939916,157.463197 C39.7972996,159.453306 40.499173,161.221205 41.4261941,162.829543 C44.2552236,167.772024 49.113519,171.293138 53.3110549,175.479905 C55.8982954,178.049526 58.050903,180.961762 59.5584135,184.249897 C60.4384473,186.170505 61.1001857,188.211517 61.4985992,190.393492 C61.5886582,190.900564 61.6875274,191.402741 61.7854177,191.905897 C62.7662785,197.187078 63.9204051,201.890707 68.5829198,205.398116" id="Fill-53" fill="#7EE8D4"></path>
                <path d="M44.4611848,133.063453 C44.610957,136.94774 44.7773705,140.905445 45.8874464,144.656601 C46.4092017,146.421563 47.1433789,148.133664 48.1800371,149.661732 C49.1021637,151.020449 50.2425857,152.207858 51.459362,153.30423 C53.8978093,155.49893 56.6827882,157.367656 58.7482734,159.947065 C59.8397502,161.310677 60.5504338,162.826019 60.9811511,164.514626 C61.4069738,166.180719 61.7456743,167.956449 62.8665181,169.322019 C64.048054,170.760027 65.9050329,171.36401 67.3254211,172.509327 C68.5333873,173.483335 69.4604051,174.750035 70.2102481,176.097006 C71.7432101,178.848702 72.5928979,181.917563 73.9751089,184.741698 C74.6358684,186.093563 75.4121384,187.394525 76.4115983,188.525158 C77.6518684,189.929884 79.4599021,190.835369 80.4123747,192.481884 C81.3716996,194.143082 81.4431595,196.177242 81.6320878,198.038137 C81.8171004,199.867706 82.1460118,201.647352 82.8165603,203.366305 C85.7562059,210.899943 93.0470751,215.221799 99.9757502,218.574542 C100.943885,219.042457 101.915936,219.500584 102.889944,219.958711 C103.343176,220.172111 103.322619,219.225512 102.994687,219.070846 C95.9113451,215.736702 88.0664169,212.084415 84.1723409,204.8699 C83.2697924,203.197934 82.6599359,201.38109 82.385843,199.49866 C82.1205603,197.673985 82.1068557,195.807217 81.6360034,194.015824 C81.1720034,192.249884 80.2616236,190.913681 78.8637502,189.750744 C77.5285266,188.640668 76.344054,187.557023 75.4131173,186.075943 C72.2052523,180.971943 71.6903494,174.072635 66.1086447,170.714997 C65.2736405,170.21282 64.3769654,169.765462 63.6457249,169.109597 C62.9516827,168.487014 62.515092,167.693124 62.2067376,166.8219 C61.6213536,165.166576 61.4226363,163.408466 60.6630076,161.808938 C59.3023325,158.943689 56.8697586,156.854711 54.4694886,154.871453 C51.8284084,152.689478 49.1462143,150.511419 47.5750751,147.391656 C45.8218599,143.909698 45.4058262,139.904027 45.1904675,136.066727 C45.1356489,135.111318 45.0974717,134.155909 45.0602734,133.199521 C45.0416743,132.701259 44.4357333,132.410525 44.4611848,133.063453" id="Fill-55" fill="#4CA1FF"></path>
                <path d="M98.0713924,222.510711 C100.51865,222.507774 103.124489,222.823959 105.929046,224.365732 C106.179646,220.477529 107.48746,219.669934 108.359662,218.247588 C101.873451,212.108888 92.2968439,211.621394 91.7163544,198.949495 C91.5939916,196.234997 92.1705654,194.309495 91.7369114,192.376162 C89.8025992,196.439588 86.3294515,197.273614 86.6025654,201.421225 C86.838481,205.70001 92.3115274,209.66163 93.2933671,215.06028 C94.0999831,219.518204 95.7445401,220.654711 98.0713924,222.510711" id="Fill-57" fill="#5A4FD1"></path>
                <path d="M160.839727,286.372675 C156.46403,284.644911 150.621938,283.935207 147.816402,287.711814 C145.467035,290.873671 146.683811,295.355089 148.305853,298.942768 C149.675338,301.973451 151.415828,305.05308 154.303592,306.700574 C156.27706,307.825333 158.589229,308.164034 160.844621,308.431274 C167.135051,309.180135 173.47149,309.546245 179.805971,309.528624 C187.148722,309.508068 196.043035,312.506447 202.118106,317.084776 C194.323102,302.593097 175.564385,292.187359 160.839727,286.372675" id="Fill-59" fill="#5084DA"></path>
                <path d="M153.163365,295.793637 C158.732344,296.030532 164.352226,296.422093 169.698015,298.003021 C175.164209,299.61919 196.191045,309.269215 199.478201,313.375713" id="Stroke-61" stroke="#0B43A4" stroke-linecap="round" stroke-linejoin="round"></path>
                <path d="M374.623909,178.606326 C374.48882,179.259254 374.433023,179.901414 374.441833,180.537701 C374.451622,183.556638 375.664483,186.416014 374.446727,189.425161 C373.717445,191.392756 372.229512,193.003051 371.077343,194.774866 C370.81304,195.148807 370.58104,195.542326 370.372533,195.947592 C367.763757,200.961532 368.747554,204.132199 370.377428,207.2363 C371.047976,208.509853 371.833057,209.781448 372.513394,211.151912 C373.557884,213.247743 374.394846,215.614731 374.268567,218.673803 C374.204938,220.597347 373.754643,222.797921 372.754204,225.385161 C372.576044,225.848182 372.815875,226.402241 373.300432,226.693954 C373.741917,226.953364 374.28423,226.923997 374.644466,226.641094 C378.002103,223.926596 379.66428,221.053516 380.545293,218.152047 C383.042474,209.982123 379.384314,201.57041 389.993664,195.680351 C392.266677,194.420503 394.161833,194.094528 395.634103,192.901246 C396.374154,192.294326 397.006525,191.466174 397.531217,190.18479 C398.508162,187.604402 398.10877,184.791035 398.486626,181.918933 C399.748432,174.02506 407.931082,173.424014 414.147116,169.691457 C419.258947,166.719507 420.337698,160.259727 421.398829,154.888486 C422.560786,148.256419 429.013715,145.064216 432.175571,139.407136 C435.346238,133.753971 433.231808,124.651153 424.636061,123.519541 C415.919909,122.114815 409.133175,128.635288 403.267588,133.198933 C401.733647,134.392216 400.51785,135.74506 399.534052,137.224182 C396.504348,141.752587 395.555791,147.412604 393.755588,152.789718 C392.654322,156.100368 391.076331,159.183912 388.901208,161.873938 C387.629614,163.446056 386.162238,164.881127 384.462862,166.150765 C384.066407,166.444435 383.677782,166.742022 383.290137,167.040587 C379.181681,170.128047 375.643926,173.119575 374.623909,178.606326" id="Fill-63" fill="#7EE8D4"></path>
                <path d="M426.220905,126.996996 C423.101141,128.698329 419.933411,130.435882 417.277647,132.827342 C416.00801,133.9707 414.860736,135.269705 413.979723,136.739038 C413.142761,138.133975 412.572061,139.665958 412.12666,141.227308 C411.223132,144.395038 410.835487,147.781063 409.352449,150.757907 C408.582052,152.303595 407.510154,153.529181 406.203318,154.642194 C405.013951,155.655359 403.738441,156.679291 403.135436,158.168203 C402.440415,159.883241 402.758559,161.809722 402.274002,163.57762 C401.891251,164.975494 401.186441,166.251004 400.351436,167.427646 C398.620736,169.865114 396.384922,171.887527 394.581782,174.267241 C393.720348,175.402768 392.962677,176.625418 392.446795,177.959662 C391.802677,179.627713 391.787993,181.5307 390.736651,183.028422 C389.775369,184.398886 388.283521,185.300456 386.890542,186.171679 C385.395757,187.106532 383.96558,188.08054 382.744888,189.367797 C377.368753,195.036624 376.732466,203.244726 376.797073,210.660895 C376.806862,211.768034 376.829377,212.875173 376.852871,213.981333 C376.863639,214.482532 377.465664,214.770329 377.452938,214.117401 C377.289462,206.385046 377.108365,197.750143 382.160483,191.341266 C383.244128,189.967865 384.542154,188.810802 385.99974,187.849519 C387.385867,186.934245 388.878694,186.146228 390.108196,185.017553 C391.386643,183.843848 391.991605,182.451848 392.368483,180.780861 C392.722846,179.204827 393.228938,177.772692 394.09331,176.399291 C395.64585,173.934414 397.7965,171.928641 399.647605,169.699679 C401.541782,167.420793 402.958255,164.935359 403.187318,161.931105 C403.264651,160.902278 403.269546,159.833316 403.643487,158.85735 C403.950862,158.055629 404.509816,157.380186 405.122609,156.789907 C406.270862,155.682768 407.58455,154.773367 408.576179,153.508624 C410.56531,150.968371 411.247605,147.705688 411.963183,144.634869 C412.729664,141.344776 413.638086,138.170194 415.854322,135.534987 C418.131251,132.828321 421.2099,130.896945 424.255268,129.169181 C425.022727,128.73357 425.796061,128.308726 426.570373,127.886819 C426.891453,127.711595 426.610508,126.783595 426.220905,126.996996" id="Fill-65" fill="#4CA1FF"></path>
                <path d="M349.328273,299.445435 C355.99656,303.20638 358.715953,312.236759 364.246754,314.50292 C371.098096,317.385789 373.577657,309.685738 384.785117,312.365975 C394.189438,314.615494 396.377286,325.503831 412.495902,323.239629 C417.418805,322.548523 420.910552,318.654447 419.411851,313.613097 C418.368341,308.62265 411.827311,305.08 407.975328,302.314599 C404.54721,300.070954 401.466603,298.784675 399.600814,294.908219 C399.582214,294.867105 399.562636,294.824034 399.546974,294.781941 C398.327261,291.65043 399.072206,288.979004 395.902518,286.53762 C388.508864,280.346059 378.243109,288.732321 369.425151,287.886549 C363.207159,287.291376 363.806248,280.831595 356.437067,278.466565 C349.139345,276.124051 351.136307,282.926447 335.968206,275.870515 C335.422957,275.616979 334.772965,275.855831 334.521387,276.40108 C334.345185,276.782852 334.405877,277.233148 334.675075,277.555207 C344.821404,289.674025 339.516729,293.910717 349.328273,299.445435" id="Fill-67" fill="#4A84D8"></path>
                <path d="M349.328273,299.445435 C355.99656,303.20638 358.715953,312.236759 364.246754,314.50292 C371.098096,317.385789 373.577657,309.685738 384.785117,312.365975 C394.189438,314.615494 396.377286,325.503831 412.495902,323.239629 C417.418805,322.548523 420.910552,318.654447 419.411851,313.613097 C418.368341,308.62265 411.827311,305.08 407.975328,302.314599 C404.54721,300.070954 401.466603,298.784675 399.600814,294.908219 C399.582214,294.867105 399.562636,294.824034 399.546974,294.781941 C398.327261,291.65043 399.072206,288.979004 395.902518,286.53762 C388.508864,280.346059 378.243109,288.732321 369.425151,287.886549 C363.207159,287.291376 363.806248,280.831595 356.437067,278.466565 C349.139345,276.124051 351.136307,282.926447 335.968206,275.870515 C335.422957,275.616979 334.772965,275.855831 334.521387,276.40108 C334.345185,276.782852 334.405877,277.233148 334.675075,277.555207 C344.821404,289.674025 339.516729,293.910717 349.328273,299.445435" id="Fill-69" fill="#00AD9F"></path>
                <path d="M341.522893,284.017141 C346.296024,286.774711 349.058488,291.802356 353.315737,295.18055 C355.299973,296.755605 357.651298,298.021327 360.216024,298.227875 C363.027433,298.453023 366.00134,297.202964 368.702133,298.404078 C370.760766,299.32131 372.222268,301.147943 374.12134,302.315774 C375.135484,302.939335 376.233813,303.306424 377.430032,303.329917 C378.945374,303.360263 380.429391,302.940314 381.943754,302.964786 C386.9528,303.047993 390.588446,307.409985 394.11837,310.390744 C398.854302,314.391521 404.804074,316.785917 411.002488,317.107976 C411.445931,317.13147 411.316716,316.172145 410.951585,316.152567 C405.381627,315.862812 399.950673,313.908922 395.504496,310.533664 C391.764108,307.694846 388.55918,303.419976 383.797796,302.260955 C382.551652,301.956516 381.299635,301.974137 380.033914,302.125867 C378.557728,302.303048 377.067838,302.568331 375.617104,302.093563 C373.458623,301.384837 371.931534,299.496533 370.098049,298.251369 C369.130893,297.593546 368.064868,297.121715 366.896057,296.977816 C365.489374,296.805529 364.071922,297.037529 362.674049,297.185343 C361.249745,297.336095 359.854808,297.343926 358.460851,296.978795 C357.175551,296.643031 355.972479,296.053732 354.861424,295.333259 C349.763298,292.023588 346.927416,286.191284 341.627635,283.129276 C341.200834,282.882592 341.209644,283.835065 341.522893,284.017141" id="Fill-71" fill="#4CA1FF"></path>
                <path d="M111.150906,281.185664 C111.150906,281.185664 82.0823831,274.826711 59.7271764,277.219149 C59.0204084,277.294525 59.8808641,272.889462 59.8808641,272.889462 C59.8808641,272.889462 55.2761046,277.779082 54.1131679,277.965073 C41.8191257,279.929732 29.8402903,284.162508 21.6713451,292.461647 C21.6713451,292.461647 36.5428388,231.364398 117.990501,240.448618 L111.150906,281.185664 Z" id="Fill-73" fill="#5084DA"></path>
                <path d="M128.048925,284.46264 C128.048925,284.46264 115.0256,278.616631 98.7679797,265.923197 C98.1189671,265.416125 101.066444,261.515197 101.066444,261.515197 C101.066444,261.515197 94.5900219,262.570454 93.4642835,261.623855 C74.8308658,245.944766 53.5132962,221.748243 42.7786464,187.675568 C42.7786464,187.675568 60.6240473,188.429323 85.5978194,197.550741 C86.6618869,197.938386 89.5163679,203.268513 89.5163679,203.268513 C89.5163679,203.268513 90.6783257,199.482116 91.6161148,199.860952 C114.504824,209.079281 142.254765,225.229222 167.577026,253.487214 L128.048925,284.46264 Z" id="Fill-75" fill="#5193F4"></path>
                <g id="Group-89" transform="translate(42.092827, 188.220523)" fill="#5084DA">
                    <path d="M0.6859173,0.285741772 C11.6212422,5.135227 22.1513013,10.8715983 32.4317401,16.997573 C42.7258835,23.1127797 52.6548962,29.8300118 62.3362464,36.8761553 C67.1974785,40.3757333 71.8316051,44.1748557 76.5489384,47.8614042 L83.421816,53.6447629 C84.5612591,54.6148557 85.722238,55.5604759 86.8440608,56.5511257 L90.1478582,59.594535 C99.1048203,67.5471426 107.339352,76.2740624 115.23812,85.2388557 L108.91147,78.8877333 L105.763318,75.703362 C104.694356,74.6618093 103.581343,73.6643072 102.492803,72.6423325 L95.9840776,66.4987376 L89.2590143,60.5939949 C84.8157738,56.6147544 80.1287865,52.9184169 75.5553519,49.0928641 C70.8252928,45.4601553 66.1755038,41.7236827 61.3074194,38.2759865 C51.7503899,31.1407629 41.8468287,24.471497 31.736719,18.1321215 C26.6875376,14.9526447 21.5717907,11.8779105 16.3982886,8.89910886 C11.2365333,5.8958346 6.00038143,3.02471224 0.6859173,0.285741772" id="Fill-77"></path>
                    <path d="M68.8261772,42.7877502 C65.8669536,42.0672776 62.9136034,41.4231595 59.972,40.7741468 C57.0225654,40.1564591 54.0760675,39.5681384 51.1139072,39.0894549 C48.1556624,38.5794464 45.1797975,38.240746 42.1931646,37.9431595 C39.2016371,37.6994127 36.2042363,37.584881 33.151038,37.5936911 C36.1180928,36.9123747 39.1889114,36.5678008 42.2528776,36.5873789 C45.3148861,36.6118515 48.3759156,36.8859443 51.3948523,37.3744169 C57.4160844,38.4159696 63.3452996,40.0938093 68.8261772,42.7877502" id="Fill-79"></path>
                    <path d="M40.2272338,23.2029367 C38.1196557,23.0766582 36.0257823,23.0022616 33.9387612,22.9229705 C31.8497823,22.8642363 29.7676557,22.827038 27.6874869,22.8652152 C25.6063392,22.8838143 23.5340017,23.0198819 21.4606852,23.1843376 C19.3893266,23.3869705 17.3297148,23.6786835 15.2475882,24.0624135 C17.1887527,23.2313249 19.2405333,22.6165738 21.3334278,22.2524219 C23.4263224,21.8912068 25.5476051,21.7003207 27.6679089,21.6611646 C31.9036219,21.6298397 36.1559764,22.0409789 40.2272338,23.2029367" id="Fill-81"></path>
                    <path d="M94.6228152,64.4708422 C91.9846717,63.3176945 89.2750684,62.4543021 86.5507814,61.7171882 C83.8216,61.0035679 81.058157,60.4504878 78.263389,60.1803105 C75.4764523,59.8651038 72.6611274,59.7574245 69.8477603,59.9140489 C67.0236253,60.0021502 64.222984,60.4289519 61.3645873,60.851838 C64.0281823,59.7809181 66.8268658,58.8852219 69.7244186,58.5631629 C72.6082667,58.1216776 75.5537857,58.1549603 78.4542751,58.4535257 C81.3577013,58.7697114 84.2229502,59.4226397 86.9550684,60.427973 C89.6911021,61.405897 92.3165198,62.7323105 94.6228152,64.4708422" id="Fill-83"></path>
                    <path d="M68.8261772,42.7877502 C66.6637806,39.1883241 64.4788692,35.7416068 62.0012658,32.49067 C60.7952574,30.8441553 59.4835274,29.2818262 58.1267679,27.7508219 C56.7895865,26.1894717 55.3045907,24.7808304 53.848962,23.2449316 C55.7245401,24.1905519 57.5198481,25.359362 59.0821772,26.7866025 C60.6856203,28.173708 62.1138397,29.7565941 63.3883713,31.4452017 C64.6482194,33.146535 65.792557,34.9359696 66.7088101,36.8399359 C67.6368101,38.7321553 68.4091646,40.7154127 68.8261772,42.7877502" id="Fill-85"></path>
                    <path d="M94.303497,63.8972051 C93.1797165,61.6339814 92.0158008,59.4236186 90.8744,57.2132557 C89.704611,55.0165975 88.524054,52.8375595 87.2583325,50.7123612 C86.0063156,48.5793316 84.6427038,46.5246143 83.2321046,44.4924118 C81.7696236,42.5003443 80.2317671,40.5650532 78.5353283,38.6816439 C80.6634633,40.0432979 82.6075646,41.7348422 84.2932354,43.6466397 C85.9671595,45.5652895 87.4413873,47.6513316 88.7531173,49.826454 C91.2904338,54.2168338 93.3079527,58.9273148 94.303497,63.8972051" id="Fill-87"></path>
                </g>
                <path d="M34.1841722,279.093063 C37.8893198,274.031156 42.9776574,270.098903 48.3802228,266.905722 C53.8160709,263.702751 59.7795477,261.476726 65.8732186,259.896776 L70.4955983,258.916895 C72.0334549,258.575257 73.6085097,258.46562 75.1649654,258.24243 C78.2798346,257.768641 81.4289654,257.720675 84.5643916,257.6267 C86.1325941,257.526852 87.6998177,257.686414 89.2650835,257.741232 L93.9559865,257.969316 C97.0630245,258.363814 100.162231,258.792574 103.238923,259.280068 C100.111328,259.183156 97.0111426,258.925705 93.9080203,258.820962 L89.2504,258.838582 C87.6998177,258.864034 86.1492354,258.783764 84.6064844,258.964861 C81.5219612,259.252658 78.4237333,259.305519 75.3803241,259.875241 C73.85813,260.130734 72.3095055,260.23254 70.8078684,260.586903 L66.2902312,261.582447 C60.3169654,263.089958 54.4973873,265.211241 49.0282565,268.068658 C47.6646447,268.791089 46.2941806,269.504709 45.0079021,270.362228 C44.3579105,270.777283 43.6893198,271.169823 43.052054,271.606414 L41.1686447,272.958278 C38.6597165,274.76827 36.2868557,276.785789 34.1841722,279.093063" id="Fill-90" fill="#4CA1FF"></path>
                <path d="M84.4580827,258.406103 C82.7645806,261.106896 81.1141502,263.659875 79.7348759,266.360668 C79.028108,267.699808 78.4554498,269.087892 77.9102008,270.49947 C77.3904034,271.927689 77.0321249,273.392128 76.6660152,274.962289 C75.9161755,271.8112 76.7374751,268.42028 78.1882093,265.568736 C78.947838,264.143453 79.8327662,262.792567 80.884108,261.583622 C81.9285975,260.374677 83.0944709,259.260685 84.4580827,258.406103" id="Fill-92" fill="#4CA1FF"></path>
                <polygon id="Fill-94" fill="#6387C1" points="212.816439 311.132557 260.956928 311.132557 260.956928 278.02508 212.816439 278.02508"></polygon>
                <polygon id="Fill-96" fill-opacity="0.1" fill="#000000" points="212.816439 290.024473 260.956928 290.024473 260.956928 278.02508 212.816439 278.02508"></polygon>
                <path d="M285.743534,310.611976 L188.029441,310.611976 C184.94296,310.611976 182.441863,313.114052 182.441863,316.199554 C182.441863,319.285057 184.94296,321.787132 188.029441,321.787132 L285.743534,321.787132 C288.829036,321.787132 291.331112,319.285057 291.331112,316.199554 C291.331112,313.114052 288.829036,310.611976 285.743534,310.611976" id="Fill-97" fill="#6387C1"></path>
                <path d="M291.33307,316.203372 C291.33307,319.283001 288.830015,321.786056 285.742555,321.786056 L188.03042,321.786056 C184.941981,321.786056 182.439905,319.283001 182.439905,316.203372 C182.439905,315.734478 182.493745,315.279288 182.617087,314.847592 C183.210302,317.282123 185.411855,319.082326 188.03042,319.082326 L285.742555,319.082326 C288.361121,319.082326 290.562673,317.282123 291.155889,314.847592 C291.278251,315.279288 291.33307,315.734478 291.33307,316.203372" id="Fill-98" fill-opacity="0.1" fill="#000000"></path>
                <path d="M86.2610262,282.642468 C84.3717435,282.642468 82.8348658,281.10559 82.8348658,279.216307 L82.8348658,80.2748388 C82.8348658,78.386535 84.3717435,76.8486785 86.2610262,76.8486785 L387.512537,76.8486785 C389.400841,76.8486785 390.938697,78.386535 390.938697,80.2748388 L390.938697,279.216307 C390.938697,281.10559 389.400841,282.642468 387.512537,282.642468 L86.2610262,282.642468 Z" id="Fill-99" fill="#FFFFFF"></path>
                <path d="M387.512145,74.4019105 L86.2606346,74.4019105 C83.0175291,74.4019105 80.3872169,77.0322228 80.3872169,80.2753283 L80.3872169,279.216797 C80.3872169,282.459902 83.0175291,285.090214 86.2606346,285.090214 L387.512145,285.090214 C390.755251,285.090214 393.385563,282.459902 393.385563,279.216797 L393.385563,80.2753283 C393.385563,77.0322228 390.755251,74.4019105 387.512145,74.4019105 M387.512145,79.2964253 C388.051521,79.2964253 388.491048,79.7359527 388.491048,80.2753283 L388.491048,279.216797 C388.491048,279.756172 388.051521,280.1957 387.512145,280.1957 L86.2606346,280.1957 C85.7212591,280.1957 85.2817316,279.756172 85.2817316,279.216797 L85.2817316,80.2753283 C85.2817316,79.7359527 85.7212591,79.2964253 86.2606346,79.2964253 L387.512145,79.2964253" id="Fill-100" fill="#005C8A"></path>
                <path d="M393.384682,278.81202 L393.384682,259.362197 L80.3882937,259.362197 L80.3882937,278.81202 C80.3882937,282.478012 83.3592641,285.438214 87.0144878,285.438214 L386.757509,285.438214 C390.413711,285.438214 393.384682,282.478012 393.384682,278.81202" id="Fill-101" fill="#6387C1"></path>
                <path d="M261.058734,118.433455 C261.058734,131.757303 250.257519,142.559497 236.932692,142.559497 C223.608844,142.559497 212.80665,131.757303 212.80665,118.433455 C212.80665,105.108628 223.608844,94.3074127 236.932692,94.3074127 C250.257519,94.3074127 261.058734,105.108628 261.058734,118.433455" id="Fill-102" fill="#C8EEFB"></path>
                <path d="M247.542434,128.581448 C248.122923,128.581448 248.6251,128.389583 249.05386,128.010748 L241.734603,120.692469 C241.559379,120.817769 241.38905,120.940132 241.22851,121.056621 C240.680324,121.459929 240.235902,121.775136 239.895244,122.000284 C239.553607,122.22641 239.099396,122.457431 238.532611,122.692368 C237.965826,122.928284 237.437219,123.045752 236.946788,123.045752 L236.933084,123.045752 L236.9184,123.045752 C236.42797,123.045752 235.899362,122.928284 235.332577,122.692368 C234.765792,122.457431 234.311581,122.22641 233.969944,122.000284 C233.629286,121.775136 233.184864,121.459929 232.636678,121.056621 C232.48397,120.945026 232.314619,120.821684 232.131565,120.690511 L224.811328,128.010748 C225.239109,128.389583 225.742265,128.581448 226.323733,128.581448 L247.542434,128.581448 Z" id="Fill-103" fill="#005C8A"></path>
                <path d="M225.473165,116.083696 C224.924979,115.718565 224.439443,115.300574 224.017536,114.829722 L224.017536,125.964743 L230.467527,119.513772 C229.177333,118.613181 227.514177,117.470802 225.473165,116.083696" id="Fill-104" fill="#005C8A"></path>
                <path d="M248.406609,116.083696 C246.443909,117.412068 244.774879,118.556405 243.4005,119.516709 L249.848533,125.964743 L249.848533,114.829722 C249.435436,115.290785 248.954795,115.708776 248.406609,116.083696" id="Fill-105" fill="#005C8A"></path>
                <path d="M247.542434,108.284972 L226.323733,108.284972 C225.582704,108.284972 225.013961,108.534592 224.615548,109.034812 C224.216155,109.534052 224.017438,110.159571 224.017438,110.908432 C224.017438,111.513394 224.281742,112.169259 224.810349,112.876027 C225.337978,113.582795 225.900847,114.137833 226.49602,114.541141 C226.822974,114.771183 227.80775,115.456415 229.452307,116.594879 C230.339193,117.20963 231.110569,117.746069 231.773286,118.208111 C232.338113,118.602609 232.825607,118.943268 233.227936,119.22617 C233.274923,119.258474 233.347362,119.310356 233.443295,119.378879 C233.548037,119.454255 233.67921,119.54823 233.840729,119.665698 C234.152999,119.891824 234.412408,120.0739 234.618957,120.213884 C234.825505,120.352888 235.076105,120.508533 235.368797,120.682778 C235.662468,120.855065 235.938518,120.985259 236.197927,121.071403 C236.457337,121.157546 236.698147,121.200618 236.9184,121.200618 L236.933084,121.200618 L236.947767,121.200618 C237.16802,121.200618 237.40883,121.157546 237.66824,121.071403 C237.927649,120.985259 238.2037,120.855065 238.49737,120.682778 C238.790062,120.508533 239.039683,120.352888 239.246231,120.213884 C239.45278,120.0739 239.713168,119.891824 240.025438,119.665698 C240.186957,119.54823 240.31813,119.454255 240.422873,119.378879 C240.518805,119.310356 240.591244,119.258474 240.637252,119.22617 C240.95148,119.007875 241.439953,118.668196 242.096797,118.212027 C243.292037,117.381917 245.052105,116.159268 247.383851,114.541141 C248.085725,114.050711 248.671109,113.459453 249.14294,112.768348 C249.612814,112.076263 249.84775,111.350896 249.84775,110.591268 C249.84775,109.956938 249.619666,109.414626 249.163497,108.962373 C248.707328,108.511099 248.166974,108.284972 247.542434,108.284972" id="Fill-106" fill="#005C8A"></path>
                <path d="M294.611024,170.878866 L179.162147,170.878866 C173.889776,170.878866 169.615885,166.604976 169.615885,161.332604 C169.615885,156.060233 173.889776,151.786343 179.162147,151.786343 L294.611024,151.786343 C299.883396,151.786343 304.157286,156.060233 304.157286,161.332604 C304.157286,166.604976 299.883396,170.878866 294.611024,170.878866" id="Fill-107" fill="#C8EEFB"></path>
                <path d="M290.603689,163.825772 L183.16909,163.825772 C181.792753,163.825772 180.676803,162.708844 180.676803,161.332506 C180.676803,159.95519 181.792753,158.839241 183.16909,158.839241 L290.603689,158.839241 C291.980027,158.839241 293.096955,159.95519 293.096955,161.332506 C293.096955,162.708844 291.980027,163.825772 290.603689,163.825772" id="Fill-108" fill="#005C8A"></path>
                <path d="M294.703727,205.216432 L179.25387,205.216432 C173.982478,205.216432 169.708587,200.943521 169.708587,195.67017 C169.708587,190.397799 173.982478,186.123909 179.25387,186.123909 L294.703727,186.123909 C299.976098,186.123909 304.249988,190.397799 304.249988,195.67017 C304.249988,200.943521 299.976098,205.216432 294.703727,205.216432" id="Fill-109" fill="#C8EEFB"></path>
                <path d="M229.179389,195.838542 L229.179389,195.838542 C229.179389,194.462204 228.06344,193.345276 226.686123,193.345276 C225.309786,193.345276 224.193836,194.462204 224.193836,195.838542 C224.193836,197.214879 225.309786,198.331808 226.686123,198.331808 C228.06344,198.331808 229.179389,197.214879 229.179389,195.838542 M221.766157,195.838542 L221.766157,195.838542 C221.766157,194.462204 220.650208,193.345276 219.272891,193.345276 C217.896554,193.345276 216.780604,194.462204 216.780604,195.838542 C216.780604,197.214879 217.896554,198.331808 219.272891,198.331808 C220.650208,198.331808 221.766157,197.214879 221.766157,195.838542 M214.352925,195.838542 L214.352925,195.838542 C214.352925,194.462204 213.236976,193.345276 211.860638,193.345276 C210.483322,193.345276 209.367372,194.462204 209.367372,195.838542 C209.367372,197.214879 210.483322,198.331808 211.860638,198.331808 C213.236976,198.331808 214.352925,197.214879 214.352925,195.838542 M206.940672,195.838542 L206.940672,195.838542 C206.940672,194.462204 205.824722,193.345276 204.447406,193.345276 C203.071068,193.345276 201.95414,194.462204 201.95414,195.838542 C201.95414,197.214879 203.071068,198.331808 204.447406,198.331808 C205.824722,198.331808 206.940672,197.214879 206.940672,195.838542 M199.52744,195.838542 L199.52744,195.838542 C199.52744,194.462204 198.41149,193.345276 197.035153,193.345276 C195.657836,193.345276 194.541887,194.462204 194.541887,195.838542 C194.541887,197.214879 195.657836,198.331808 197.035153,198.331808 C198.41149,198.331808 199.52744,197.214879 199.52744,195.838542 M192.114208,195.838542 L192.114208,195.838542 C192.114208,194.462204 190.998258,193.345276 189.621921,193.345276 C188.244604,193.345276 187.128655,194.462204 187.128655,195.838542 C187.128655,197.214879 188.244604,198.331808 189.621921,198.331808 C190.998258,198.331808 192.114208,197.214879 192.114208,195.838542 M182.208689,198.331808 L182.208689,198.331808 C180.831372,198.331808 179.715423,197.214879 179.715423,195.838542 C179.715423,194.462204 180.831372,193.345276 182.208689,193.345276 C183.585026,193.345276 184.700976,194.462204 184.700976,195.838542 C184.700976,197.214879 183.585026,198.331808 182.208689,198.331808" id="Fill-110" fill="#005C8A"></path>
                <path d="M253.282035,241.188277 L220.490744,241.188277 C215.218373,241.188277 210.944483,236.914386 210.944483,231.642015 C210.944483,226.368665 215.218373,222.095754 220.490744,222.095754 L253.282035,222.095754 C258.554407,222.095754 262.828297,226.368665 262.828297,231.642015 C262.828297,236.914386 258.554407,241.188277 253.282035,241.188277" id="Fill-111" fill="#005C8A"></path>
                <path d="M305.845502,257.384128 C305.845502,247.431622 313.942987,239.334137 323.896473,239.334137 C333.849958,239.334137 341.948422,247.431622 341.948422,257.384128 L341.948422,267.498154 L305.845502,267.498154 L305.845502,257.384128 Z M357.924118,284.9099 L357.924118,273.999048 C357.924118,270.408432 355.01384,267.498154 351.424203,267.498154 L350.856439,267.498154 L350.856439,257.384128 C350.856439,242.517529 338.763072,230.424162 323.896473,230.424162 C309.030852,230.424162 296.935527,242.517529 296.935527,257.384128 L296.935527,267.498154 L296.369722,267.498154 C292.779105,267.498154 289.869806,270.408432 289.869806,273.999048 L289.869806,284.9099 L357.924118,284.9099 Z" id="Fill-112" fill-opacity="0.1" fill="#000000"></path>
                <path d="M370.664344,182.64479 C368.040884,180.450089 364.781138,179.120739 360.903703,178.779102 C360.892935,178.420824 360.893914,178.06744 360.909576,177.608334 C362.904581,177.288233 364.610808,175.543828 365.603416,173.189566 C368.29442,170.597431 370.123011,167.388587 369.240041,163.342781 C369.188159,163.108824 369.239062,162.911085 369.337931,162.748587 C368.179889,160.678208 366.044901,159.681684 363.676935,157.536908 C355.718454,150.32533 346.259315,160.345381 349.8421,164.471457 C350.123045,164.795473 350.513627,165.650056 350.844496,166.744469 C350.837644,166.769921 350.827855,166.787541 350.821981,166.813971 C350.652631,167.588284 350.799467,168.891203 351.407365,169.535322 C351.449458,169.941566 351.477846,170.349769 351.477846,170.755035 C351.491551,170.79517 351.516024,170.823558 351.524834,170.869566 C351.641323,171.504874 351.882133,172.060891 352.194403,172.566984 C352.674066,174.491507 353.825256,176.515878 356.249019,177.328368 C356.438927,177.391997 356.63177,177.452689 356.836361,177.500655 C356.97145,178.042967 356.98907,178.354258 356.921526,178.801617 C354.574116,179.062984 352.448918,179.797161 350.553762,180.932689 C335.338673,188.287186 320.298808,211.984469 321.955112,217.208874 C323.613374,222.434258 327.820699,228.550444 330.644834,232.636385 L331.088277,232.558073 C331.31734,233.345111 331.544446,234.133127 331.77253,234.921144 C331.886083,235.313684 332.014319,235.729718 332.322673,235.997938 C332.734792,236.358174 333.340732,236.3523 333.88696,236.326849 C334.560446,236.295524 335.293644,236.238748 335.790927,235.784537 C336.078724,235.520233 336.250032,235.150208 336.344986,234.771372 C336.605374,233.748419 336.343028,232.654984 335.839872,231.721111 L336.17172,231.663355 C336.17172,231.663355 329.61307,221.848874 329.852901,215.864841 C329.939045,213.67895 335.059686,208.526984 339.22296,204.687727 C339.127028,206.020014 339.074167,207.376773 339.074167,208.753111 L337.079163,256.449178 C337.079163,256.449178 338.802032,256.789836 341.562538,257.231322 L344.240817,285.714461 L355.022454,285.714461 L355.277948,258.882731 C355.41891,258.893499 355.559872,258.903288 355.700834,258.914056 C355.825154,258.921887 355.950454,258.930697 356.075754,258.939507 C356.606319,258.977684 357.137863,259.011946 357.673323,259.043271 C357.853441,259.054039 358.034538,259.063828 358.214657,259.074596 C358.408479,259.084385 358.602302,259.097111 358.796125,259.1069 L359.854319,285.714461 L370.483247,285.714461 L372.661306,258.61549 C372.675011,258.613532 372.686758,258.610596 372.701441,258.608638 C373.13999,258.537178 373.571686,258.460824 373.991635,258.376638 C374.178606,258.338461 374.358724,258.296368 374.541779,258.256233 C374.894184,258.177921 375.239737,258.093735 375.577458,258.004655 C375.759534,257.95571 375.94161,257.905786 376.118792,257.854883 C376.457492,257.756014 376.783467,257.649313 377.103568,257.537718 C377.251382,257.486815 377.40507,257.43787 377.54799,257.383051 C377.999264,257.212722 378.434876,257.032604 378.8421,256.834866 L378.623804,205.243743 C378.623804,204.130731 378.589543,203.049043 378.526893,201.994765 C378.521998,201.915473 378.516125,201.83814 378.51123,201.758849 C378.447602,200.775051 378.356564,199.817684 378.240074,198.887727 C378.228327,198.79571 378.216581,198.703693 378.203855,198.610697 C378.192108,198.52749 378.183298,198.442326 378.171551,198.35814 C380.274235,198.775153 383.010268,199.278309 386.590116,199.882292 C388.91599,200.274832 391.179214,200.077094 393.342589,199.4643 L393.342589,189.025279 C384.439467,190.041381 374.470319,184.942275 370.664344,182.64479" id="Fill-113" fill-opacity="0.1" fill="#000000"></path>
                <path d="M242.031308,194.877749 C242.031308,204.035386 234.607308,211.459386 225.449671,211.459386 C216.291055,211.459386 208.868034,204.035386 208.868034,194.877749 C208.868034,185.720111 216.291055,178.296111 225.449671,178.296111 C234.607308,178.296111 242.031308,185.720111 242.031308,194.877749" id="Fill-114" fill-opacity="0.3" fill="#94EBFF"></path>
                <path d="M234.448138,194.877749 C234.448138,199.847639 230.418974,203.876803 225.449084,203.876803 C220.479193,203.876803 216.450029,199.847639 216.450029,194.877749 C216.450029,189.907858 220.479193,185.879673 225.449084,185.879673 C230.418974,185.879673 234.448138,189.907858 234.448138,194.877749" id="Fill-115" fill-opacity="0.5" fill="#94EBFF"></path>
                <path d="M299.120341,274.401181 L299.120341,257.383932 C299.120341,247.431426 307.217826,239.333941 317.17229,239.333941 C327.124797,239.333941 335.223261,247.431426 335.223261,257.383932 L335.223261,274.401181 L299.120341,274.401181 Z M317.17229,230.423966 C302.305691,230.423966 290.211345,242.518312 290.211345,257.383932 L290.211345,283.311156 L344.131278,283.311156 L344.131278,257.383932 C344.131278,242.518312 332.037911,230.423966 317.17229,230.423966 L317.17229,230.423966 Z" id="Fill-116" fill="#F9714E"></path>
                <path d="M335.223065,274.401181 L299.120145,274.401181 L299.120145,257.383932 C299.120145,247.431426 307.218609,239.333941 317.173073,239.333941 C327.12558,239.333941 335.223065,247.431426 335.223065,257.383932 L335.223065,274.401181 Z M317.173073,235.753114 C305.301917,235.753114 295.644061,245.409992 295.644061,257.281148 L295.644061,277.982008 L338.700128,277.982008 L338.700128,257.281148 C338.700128,245.409992 329.042272,235.753114 317.173073,235.753114 L317.173073,235.753114 Z" id="Fill-117" fill="#F9714E"></path>
                <path d="M344.57521,321.787132 L289.768392,321.787132 C286.109252,321.787132 283.144155,318.822035 283.144155,315.162896 L283.144155,274.121411 C283.144155,270.463251 286.109252,267.498154 289.768392,267.498154 L344.57521,267.498154 C348.23337,267.498154 351.199446,270.463251 351.199446,274.121411 L351.199446,315.162896 C351.199446,318.822035 348.23337,321.787132 344.57521,321.787132" id="Fill-118" fill="#FFB255"></path>
                <path d="M327.065867,290.881894 C327.065867,285.417657 322.636331,280.988122 317.172095,280.988122 C311.707858,280.988122 307.278322,285.417657 307.278322,290.881894 C307.278322,294.701573 309.447571,298.010265 312.617259,299.659716 L312.617259,310.356189 L321.725951,310.356189 L321.725951,299.659716 C324.896618,298.010265 327.065867,294.701573 327.065867,290.881894" id="Fill-119" fill="#F9714E"></path>
                <path d="M344.698552,267.498154 L328.349894,267.498154 C324.781792,278.590103 319.227497,289.084922 312.153944,298.275841 C305.578653,306.819706 295.225776,317.662035 283.515159,317.43493 C284.403024,319.968331 286.808189,321.787132 289.64505,321.787132 L344.698552,321.787132 C348.289168,321.787132 351.199446,318.876854 351.199446,315.286238 L351.199446,273.999048 C351.199446,270.408432 348.289168,267.498154 344.698552,267.498154" id="Fill-120" fill="#FFB255"></path>
                <path d="M323.749637,230.436594 C324.182312,231.931379 324.614987,233.426164 325.047662,234.920949 C325.161215,235.313489 325.288473,235.729522 325.597806,235.998721 C326.009924,236.357978 326.615865,236.352105 327.161114,236.327632 C327.835578,236.295328 328.568776,236.24051 329.066059,235.784341 C329.354835,235.520037 329.525165,235.150012 329.621097,234.772155 C329.899105,233.671868 329.579983,232.487396 328.999494,231.51143 C328.419983,230.534484 327.597705,229.728847 326.785215,228.935936" id="Fill-121" fill="#FFC2D3"></path>
                <path d="M404.332341,178.821489 C404.857033,176.735446 405.571632,174.69737 406.462434,172.739565 C406.925455,173.327885 406.873573,174.157995 406.798197,174.903919 C407.249472,173.810484 408.11678,172.89521 409.182805,172.384223 C409.311041,172.323531 409.458856,172.267733 409.58905,172.321573 C409.735885,172.382265 409.795598,172.553573 409.834754,172.707261 C410.24002,174.307767 410.045219,176.052172 409.296358,177.523463 C408.548476,178.995733 407.252408,180.181185 405.721404,180.796915" id="Fill-122" fill="#FFC2D3"></path>
                <path d="M360.305593,318.169792 C364.114505,319.097792 367.301813,320.219615 369.051112,321.786839 L354.370505,321.786839 L354.65145,318.380257 L360.305593,318.169792 Z" id="Fill-123" fill="#5084DA"></path>
                <path d="M342.351632,318.169792 C338.5437,319.097792 335.355413,320.219615 333.606113,321.786839 L348.286721,321.786839 L348.005776,318.380257 L342.351632,318.169792 Z" id="Fill-124" fill="#5084DA"></path>
                <path d="M368.024928,232.624736 L361.103105,318.769175 C361.103105,318.769175 358.685215,319.360432 357.848253,319.360432 C357.436135,319.360432 356.656928,319.222407 355.946245,319.096128 C355.144523,318.932651 354.444608,318.769175 354.444608,318.769175 L351.853451,253.651571 L348.603494,253.651571 L347.980911,318.769175 C347.980911,318.769175 346.25119,319.285057 344.451966,319.285057 C342.698751,319.285057 340.624456,318.769175 340.624456,318.769175 L332.315527,230.424162 L368.024928,232.624736 Z" id="Fill-125" fill="#2E2C84"></path>
                <path d="M354.755214,231.80745 L342.562977,231.055652 C342.415163,246.921711 344.800749,303.618792 345.044496,319.265576 C346.612699,319.174538 347.981205,318.769273 347.981205,318.769273 L348.603787,253.651669 L351.853745,253.651669 L354.444901,318.769273 C354.444901,318.769273 355.143838,318.932749 355.946538,319.096226 C356.183433,319.138319 356.424243,319.180412 356.660159,319.219568 C356.660159,301.484783 355.060631,239.100277 354.755214,231.80745" id="Fill-126" fill="#2E2C84"></path>
                <path d="M344.753077,170.754545 C344.76776,170.795659 344.791254,170.823068 344.800064,170.870056 C345.323777,173.717684 348.027507,175.178208 351.03176,176.007338 C353.474123,176.681803 354.040908,176.976452 356.00263,175.560959 C360.069971,172.62425 363.688976,168.721364 362.515271,163.343271 C362.464368,163.109313 362.514292,162.911575 362.612182,162.749077 C361.455119,160.677718 359.321111,159.682174 356.953144,157.537397 C348.993684,150.325819 339.534545,160.34587 343.116351,164.471946 C343.697819,165.140537 344.756992,168.054731 344.753077,170.754545" id="Fill-127" fill="#001F64"></path>
                <path d="M371.898447,205.244135 C371.898447,188.868068 365.120523,178.685519 352.14027,178.685519 C339.160017,178.685519 332.349789,192.378414 332.349789,208.753502 L330.354785,256.44957 C330.354785,256.44957 360.614633,262.450245 372.116743,256.834278 L371.898447,205.244135 Z" id="Fill-128" fill="#8FC2FF"></path>
                <path d="M371.898447,205.244135 C371.898447,200.662869 371.366903,196.568118 370.319477,193.044068 C369.168287,210.864017 367.604979,258.309485 341.081603,258.119578 C350.940135,259.351038 365.056895,260.280996 372.116743,256.834278 L371.898447,205.244135 Z" id="Fill-129" fill="#8FC2FF"></path>
                <path d="M358.80562,168.832665 C358.320084,165.610116 355.448962,162.378758 351.942532,164.053661 C349.692034,165.128496 347.364203,165.251838 345.528759,164.269998 C345.47492,164.890623 345.398565,165.795129 345.329063,166.744665 C344.941418,166.033003 344.292405,165.923365 344.097603,166.813188 C343.889097,167.76664 344.146549,169.538454 345.17146,169.871281 C345.169502,170.036716 345.167544,170.203129 345.170481,170.344091 C345.219426,172.753171 346.203224,176.585576 350.111983,177.500851 C350.322447,178.351517 350.24903,178.629526 350.006262,179.762116 C350.22162,180.518808 353.261114,181.005323 354.264489,180.113543 C354.178346,179.070032 354.150937,178.566876 354.184219,177.60853 C356.496388,177.237526 358.425806,174.95864 359.298987,172.029762 C362.78584,170.074893 360.291595,166.50777 358.80562,168.832665" id="Fill-130" fill="#FFC2D3"></path>
                <path d="M358.80562,168.832665 C358.614734,167.56107 358.047949,166.293391 357.220776,165.32134 C357.316709,170.920665 354.93308,176.125492 349.52562,177.328564 C349.714549,177.392192 349.906414,177.452884 350.111983,177.500851 C350.322447,178.351517 350.24903,178.629526 350.006262,179.762116 C350.22162,180.518808 353.261114,181.005323 354.264489,180.113543 C354.178346,179.070032 354.150937,178.566876 354.184219,177.60853 C356.496388,177.237526 358.425806,174.95864 359.298987,172.029762 C362.78584,170.074893 360.291595,166.50777 358.80562,168.832665" id="Fill-131" fill="#FFC2D3"></path>
                <path d="M343.828601,180.932689 C328.614491,188.287186 313.573647,211.984469 315.23093,217.208874 C316.888213,222.434258 321.096516,228.550444 323.919673,232.636385 L329.446559,231.663355 C329.446559,231.663355 322.887909,221.848874 323.12774,215.864841 C323.274576,212.173397 337.779959,200.019338 337.779959,200.019338 L343.828601,180.932689 Z" id="Fill-132" fill="#8FC2FF"></path>
                <path d="M362.574103,181.767203 C364.956753,183.479305 384.834356,195.390596 395.765765,184.871305 C403.660618,177.274039 404.455487,175.807642 404.455487,175.807642 L407.164111,180.602309 C407.164111,180.602309 394.810356,202.404435 379.864466,199.881803 C364.919554,197.360149 364.541698,196.584857 364.541698,196.584857 L362.574103,181.767203 Z" id="Fill-133" fill="#8FC2FF"></path>
                <path d="M116.850275,275.062724 C111.159912,276.707281 106.345668,280.424176 103.263102,285.332395 L143.645786,285.332395 C140.56322,280.424176 135.748976,276.707281 130.058613,275.062724 L130.058613,176.128918 L116.850275,176.128918 L116.850275,177.743129 L102.745262,177.743129 L102.745262,189.651484 L116.850275,189.651484 L116.850275,192.487365 L102.745262,192.487365 L102.745262,204.39572 L116.850275,204.39572 L116.850275,275.062724 Z" id="Fill-134" fill-opacity="0.1" fill="#000000"></path>
                <polygon id="Fill-135" fill="#FFB255" points="111.391325 189.651679 128.309705 189.651679 128.309705 177.742346 111.391325 177.742346"></polygon>
                <polygon id="Fill-136" fill="#FFB255" points="111.391325 204.394937 128.309705 204.394937 128.309705 192.486582 111.391325 192.486582"></polygon>
                <polygon id="Fill-137" fill="#FFC87C" points="123.997637 189.651679 128.310684 189.651679 128.310684 177.742346 123.997637 177.742346"></polygon>
                <polygon id="Fill-138" fill="#FFC87C" points="123.997637 204.394937 128.310684 204.394937 128.310684 192.486582 123.997637 192.486582"></polygon>
                <polygon id="Fill-139" fill="#FFB255" points="125.496338 279.637333 138.704675 279.637333 138.704675 176.129114 125.496338 176.129114"></polygon>
                <path d="M131.89523,283.200834 L132.305391,283.200834 C132.750792,283.200834 133.111028,282.840597 133.111028,282.396176 L133.111028,180.498251 C133.111028,180.052851 132.750792,179.692614 132.305391,179.692614 L131.89523,179.692614 C131.450808,179.692614 131.090572,180.052851 131.090572,180.498251 L131.090572,282.396176 C131.090572,282.840597 131.450808,283.200834 131.89523,283.200834" id="Fill-140" fill="#FFC87C"></path>
                <path d="M120.557968,297.956034 C120.557968,304.320861 125.736365,309.498278 132.100213,309.498278 C138.46504,309.498278 143.643436,304.320861 143.643436,297.956034 C143.643436,291.591207 138.46504,286.41281 132.100213,286.41281 C125.736365,286.41281 120.557968,291.591207 120.557968,297.956034 M108.26882,297.956034 C108.26882,284.815241 118.959419,274.123662 132.100213,274.123662 C145.241006,274.123662 155.932584,284.815241 155.932584,297.956034 C155.932584,311.096827 145.241006,321.787426 132.100213,321.787426 C118.959419,321.787426 108.26882,311.096827 108.26882,297.956034" id="Fill-141" fill="#FFB255"></path>
                <path d="M120.557968,297.956034 C120.557968,291.591207 125.736365,286.41281 132.100213,286.41281 C138.46504,286.41281 143.643436,291.591207 143.643436,297.956034 C143.643436,304.320861 138.46504,309.498278 132.100213,309.498278 C125.736365,309.498278 120.557968,304.320861 120.557968,297.956034 M119.435166,297.956034 C119.435166,304.939527 125.116719,310.62108 132.101192,310.62108 C139.083706,310.62108 144.766238,304.939527 144.766238,297.956034 C144.766238,290.97254 139.083706,285.290987 132.101192,285.290987 C125.116719,285.290987 119.435166,290.97254 119.435166,297.956034" id="Fill-142" fill="#FFC87C"></path>
                <path d="M218.767092,198.331612 C214.586197,202.035781 199.518923,217.815696 196.756459,209.227781 C194.56959,202.4293 189.98343,193.073924 187.29732,189.935561 C185.529421,187.910211 183.263261,186.580861 180.777826,185.937722 L180.777826,184.851139 C183.391497,184.838414 187.478417,184.327426 187.478417,174.911359 C187.478417,172.064709 187.207261,170.189131 186.717809,168.960608 C187.498974,168.175527 187.446113,166.628861 186.894991,165.720439 C186.164729,164.516388 184.243143,163.469941 182.966653,162.904135 C179.943801,161.564996 175.997843,160.941435 173.098332,162.81897 C172.082231,161.425992 170.447463,160.178869 169.452898,159.632641 C168.218501,158.955241 166.880341,158.377688 165.472678,158.349247 C162.6877,158.29546 160.266873,160.432405 158.979615,162.903156 C157.936105,164.905992 157.444695,167.241654 157.875413,169.458869 C158.30613,171.676084 159.726518,173.738633 161.771446,174.696 C162.372493,174.978903 163.040105,175.165873 163.697927,175.075814 C164.571109,174.956388 165.306265,174.369046 165.916122,173.734717 C167.404054,172.187072 167.65759,170.340861 168.750046,168.666937 C168.916459,168.412422 169.128881,168.240135 169.357944,168.099173 C169.03197,169.186734 168.853809,170.324219 168.844999,171.451916 C168.820527,174.699916 169.960949,177.856878 171.463565,180.737789 C171.861978,181.502312 172.311295,182.279561 173.02002,182.769992 C173.700358,183.241823 175.459446,183.703865 176.177961,183.241823 L175.876459,185.549097 C173.819784,185.729215 171.736678,186.325367 169.750484,187.338532 C169.749505,187.336574 169.748527,187.331679 169.748527,187.331679 C158.423598,189.935561 149.880712,217.742278 134.732189,215.899004 L134.732189,215.936203 C132.889894,215.423257 130.868459,215.277401 130.761759,217.08054 C130.553252,220.612422 132.748932,221.063696 134.732189,220.772962 L134.732189,220.84638 C141.072543,220.84638 149.48132,219.01681 156.866164,210.854717 C152.79197,233.822717 154.418906,263.898532 154.418906,263.898532 C155.511362,264.057114 156.597944,264.199055 157.682569,264.333165 L159.538569,285.376641 L169.1837,285.376641 L169.207193,265.298363 C171.154231,265.377654 173.088543,265.417789 175.005235,265.405063 L175.230383,285.376641 L186.417286,285.376641 L188.578704,264.432034 C190.560982,264.153046 192.524662,263.819241 194.463868,263.412017 C194.065455,250.780253 194.013573,234.269097 193.173674,219.966346 C193.766889,220.523342 194.441354,220.955038 195.246991,221.154734 C196.560678,221.47973 202.224611,228.01097 206.298805,223.045975 C210.430754,218.010498 219.064678,207.614549 222.229472,202.257992 C221.543261,200.491072 219.719565,199.967359 218.767092,198.331612" id="Fill-143" fill-opacity="0.1" fill="#000000"></path>
                <polygon id="Fill-144" fill="#F9ACC8" points="182.052456 182.391939 181.416169 187.265897 186.541705 187.828766 186.541705 182.687568"></polygon>
                <path d="M142.547946,218.041627 C142.547946,218.041627 135.762191,214.697695 135.565431,218.041627 C135.19149,224.37415 142.547946,220.80507 142.547946,220.80507 L142.547946,218.041627 Z" id="Fill-145" fill="#000000"></path>
                <path d="M143.508641,217.080834 C143.508641,217.080834 136.722886,213.736901 136.526127,217.080834 C136.152186,223.413357 143.508641,219.844277 143.508641,219.844277 L143.508641,217.080834 Z" id="Fill-146" fill="#FFC2D3"></path>
                <path d="M177.423224,174.911554 C177.423224,179.342069 181.997637,184.852314 186.428152,184.852314 C189.03497,184.852314 193.242295,184.461732 193.242295,174.911554 C193.242295,164.871926 189.875848,166.889445 185.445333,166.889445 C181.014819,166.889445 177.423224,170.48104 177.423224,174.911554" id="Fill-147" fill="#FFC2D3"></path>
                <path d="M184.166592,178.635986 C184.180297,174.909303 184.658002,170.484662 186.03336,166.877404 C185.838559,166.885235 185.643757,166.889151 185.44504,166.889151 C181.014525,166.889151 177.42293,170.480746 177.42293,174.911261 C177.42293,179.25759 181.825057,184.630788 186.175301,184.833421 C184.75785,183.204527 184.156803,181.163514 184.166592,178.635986" id="Fill-148" fill="#FFC2D3"></path>
                <path d="M191.549478,169.543349 C190.839774,169.64907 190.081124,169.31037 189.41547,169.578589 C188.349445,170.009306 188.277985,171.634285 187.294187,172.232395 C186.067622,172.97734 184.218474,171.686167 183.145597,172.644513 C182.514204,173.210319 182.587622,174.203905 182.653208,175.053593 C182.826474,177.293323 182.576854,179.565357 181.920989,181.712091 C181.76828,182.211332 182.427082,183.10507 182.034542,183.444749 C181.380635,184.011534 179.492331,183.51523 178.783605,183.019905 C178.074879,182.523602 177.626542,181.738522 177.228128,180.966167 C175.724533,178.056868 174.584111,174.867602 174.609563,171.58534 C174.635014,168.304057 175.975132,164.914116 178.625023,163.017003 C181.543132,160.926066 185.626137,161.561374 188.731217,162.950437 C190.007706,163.522116 191.928314,164.579332 192.659554,165.796108 C193.376111,166.99037 193.263538,169.287855 191.549478,169.543349" id="Fill-149" fill="#FFB255"></path>
                <path d="M190.703021,164.007457 C189.657553,164.943288 188.604253,166.629938 187.816236,167.180081 C186.726717,167.941668 185.422819,168.095355 184.183527,168.47517 C178.478481,170.227406 178.083983,178.976841 180.575291,183.648165 C181.16557,183.735288 181.732354,183.705921 182.034835,183.444554 C182.427376,183.104874 181.768574,182.211136 181.921283,181.711895 C182.577148,179.565161 182.826768,177.293127 182.653502,175.054376 C182.586937,174.20371 182.513519,173.210123 183.14589,172.645296 C184.217789,171.68695 186.067916,172.978123 187.294481,172.232199 C188.2773,171.634089 188.349738,170.009111 189.415764,169.578393 C190.081418,169.310174 190.840068,169.649853 191.549772,169.543153 C193.263831,169.287659 193.376405,166.990174 192.659848,165.795912 C192.261435,165.133195 191.509637,164.522359 190.703021,164.007457" id="Fill-150" fill="#FFC87C"></path>
                <path d="M175.216874,159.645857 C173.982478,158.961603 172.644317,158.378177 171.237634,158.349789 C168.451676,158.29497 166.030849,160.453451 164.743592,162.949654 C163.700081,164.972068 163.208672,167.332203 163.639389,169.571932 C164.070106,171.811662 165.489516,173.895747 167.535423,174.863882 C168.136469,175.147764 168.804081,175.337671 169.461904,175.246633 C170.335085,175.125249 171.070241,174.533013 171.681077,173.891831 C173.16803,172.328523 173.421566,170.463713 174.514022,168.772169 C175.397971,167.404641 177.337178,167.966532 178.631288,167.073772 C181.915507,164.80957 177.238309,160.7667 175.216874,159.645857" id="Fill-151" fill="#FFB255"></path>
                <path d="M176.700108,165.681283 C176.103956,165.373907 175.637019,164.815932 175.044783,164.518346 C174.19999,163.598177 169.867365,163.116557 168.962859,169.149536 C168.692682,170.952675 167.30264,172.819443 165.88323,173.709266 C166.373661,174.174245 166.922825,174.573637 167.535619,174.863392 C168.136665,175.148253 168.804277,175.337181 169.4621,175.246143 C170.335281,175.125738 171.070437,174.532523 171.681273,173.891342 C173.168226,172.329013 173.421762,170.463224 174.514218,168.772658 C175.398167,167.404152 177.336395,167.966042 178.631484,167.074262 C179.097441,166.753181 179.388176,166.393924 179.563399,166.01411 C178.710775,166.307781 177.7955,166.247089 176.700108,165.681283" id="Fill-152" fill="#FFC87C"></path>
                <path d="M173.841711,318.169792 C177.649644,319.097792 180.837931,320.219615 182.58723,321.786839 L167.906623,321.786839 L168.187568,318.380257 L173.841711,318.169792 Z" id="Fill-153" fill="#F9714E"></path>
                <path d="M187.002474,318.169792 C190.810407,319.097792 193.998694,320.219615 195.747993,321.786839 L181.067386,321.786839 L181.348331,318.380257 L187.002474,318.169792 Z" id="Fill-154" fill="#F9714E"></path>
                <path d="M225.065941,195.047882 C224.984692,195.005789 224.845688,194.934329 224.758565,194.909857 C224.211359,194.763021 223.696456,195.142835 223.243224,195.479578 C222.441502,196.076709 220.928118,197.303274 220.265401,198.049198 L220.270295,198.049198 C220.053958,198.242042 219.858177,198.453485 219.700574,198.682549 C219.189586,199.424557 219.042751,200.465131 219.523392,201.226717 C219.896354,201.819932 220.577671,202.262397 221.278565,202.257542 C222.299561,202.25065 223.677857,201.710295 224.361131,200.911511 C225.044405,200.113705 224.988608,199.222903 224.494262,198.294903 C224.160456,197.672321 223.678835,197.323831 223.142397,197.183848 C223.763021,196.805992 224.357215,196.382127 224.895612,195.893654 C225.02189,195.779122 225.149148,195.655781 225.204945,195.495241 C225.259764,195.333722 225.216692,195.126194 225.065941,195.047882" id="Fill-155" fill="#000000"></path>
                <path d="M224.715102,197.171122 C225.210427,198.098143 225.266224,198.988945 224.58295,199.78773 C223.899676,200.584557 222.521381,201.126869 221.499406,201.133747 C220.79949,201.137637 220.118174,200.696152 219.744233,200.102937 C219.26457,199.34135 219.410427,198.298819 219.922393,197.558768 C220.989397,196.009165 223.631457,195.143814 224.715102,197.171122" id="Fill-156" fill="#FFC2D3"></path>
                <path d="M222.988611,196.296375 C223.753134,195.871531 224.469691,195.357607 225.117725,194.769286 C225.243024,194.654754 225.371261,194.531413 225.426079,194.370873 C225.480898,194.209354 225.437826,194.001826 225.288054,193.923514 C225.206805,193.880442 225.067801,193.809961 224.9797,193.786468 C224.433472,193.638653 223.918569,194.018468 223.464358,194.356189 C222.662636,194.952341 221.150231,196.178906 220.486535,196.925809 C221.0171,197.083413 222.505033,196.564594 222.988611,196.296375" id="Fill-157" fill="#FFC2D3"></path>
                <path d="M204.293424,209.779295 C209.739062,206.157354 214.05015,202.274046 218.981863,197.895413 C219.294133,197.618383 219.775754,197.649708 220.044952,197.969809 C220.949458,199.044645 222.425644,200.64613 222.269998,201.320594 C222.182876,201.696493 221.915635,201.998974 221.658184,202.284814 C217.055382,207.386856 212.451602,212.488898 207.847821,217.589961 C206.941357,218.595295 206.01923,219.613354 204.876851,220.3397 C203.73545,221.067024 202.324851,221.480122 201.010184,221.155126 C198.794927,220.607919 197.554657,218.326096 196.348648,216.388847 C190.399855,206.834754 191.379737,203.382164 192.106083,200.439581 C192.612176,198.391716 193.25042,196.373219 193.620446,194.294029 C193.736935,193.636206 192.164817,189.980982 193.061492,189.935953 C195.747602,193.074316 199.775787,202.634282 202.520631,209.228172 C202.810386,209.923193 203.664969,210.197286 204.293424,209.779295" id="Fill-158" fill="#F9714E"></path>
                <path d="M161.329668,240.322143 L168.25149,318.82135 C168.25149,318.82135 170.669381,319.360726 171.506343,319.360726 C171.918461,319.360726 172.697668,319.234447 173.408351,319.119916 C174.210073,318.971122 174.909009,318.82135 174.909009,318.82135 L174.978511,259.48319 L180.702157,259.48319 L181.372705,318.82135 C181.372705,318.82135 183.103406,319.292203 184.90263,319.292203 C186.655845,319.292203 188.73014,318.82135 188.73014,318.82135 L197.038089,238.316371 L161.329668,240.322143 Z" id="Fill-159" fill="#4B48B5"></path>
                <path d="M179.134933,246.205154 C179.176047,248.863855 178.992014,251.264125 179.918056,253.679078 C180.641465,255.566403 182.287001,256.795905 184.639305,256.748918 C188.066444,256.678437 190.444199,254.809711 190.456925,251.349289 C190.458883,250.903889 190.678157,246.212007 190.902326,246.202218 C190.900368,246.202218 179.134933,246.205154 179.134933,246.205154" id="Fill-160" fill="#568EDB"></path>
                <path d="M162.88211,246.208972 C162.922245,248.867673 162.805755,251.266964 163.46162,253.685833 C163.974565,255.576095 165.126734,256.814407 166.764439,256.777208 C169.151004,256.723369 170.482312,254.069563 170.792624,251.404989 C170.843527,250.964483 170.922819,246.268685 171.078464,246.260854 C171.077485,246.260854 162.88211,246.208972 162.88211,246.208972" id="Fill-161" fill="#568EDB"></path>
                <path d="M174.974596,259.474771 C174.982427,259.474771 174.990258,259.473792 174.999068,259.472814 C175.076402,259.459109 175.129262,259.385691 175.116537,259.307379 C174.198326,253.973337 174.828739,243.764358 174.834613,243.662552 C174.83657,243.621438 174.822866,243.581303 174.793499,243.551936 C174.764132,243.524527 174.727912,243.508864 174.684841,243.508864 C174.591845,243.513759 165.447912,243.939581 161.610613,242.969489 C161.537195,242.944037 161.456925,242.996898 161.436368,243.073252 C161.417769,243.148628 161.463777,243.22694 161.541111,243.246518 C165.133684,244.155919 173.294798,243.855396 174.539963,243.802535 C174.463608,245.12797 173.973178,254.356088 174.833634,259.356324 C174.846359,259.425826 174.906073,259.474771 174.974596,259.474771" id="Fill-162" fill="#5E9CE4"></path>
                <path d="M176.120793,259.474771 L176.133519,259.474771 C176.21281,259.46694 176.270565,259.397438 176.263713,259.320105 C175.719443,253.083514 175.654835,248.163548 176.062059,243.854417 C181.523359,243.802535 188.147595,243.086957 195.758565,241.724324 C195.83492,241.711598 195.886802,241.636223 195.873097,241.557911 C195.860371,241.480577 195.793806,241.430653 195.706684,241.4424 C188.052641,242.812864 181.400017,243.527463 175.931865,243.568577 C175.857468,243.568577 175.796776,243.625354 175.790903,243.698771 C175.367038,248.056847 175.426751,253.028695 175.977873,259.343598 C175.984726,259.418974 176.046397,259.474771 176.120793,259.474771" id="Fill-163" fill="#5E9CE4"></path>
                <path d="M173.408253,319.120014 C174.209975,318.97122 174.908911,318.821448 174.908911,318.821448 L174.978414,259.483288 L175.459055,259.483288 C175.345502,259.300233 175.183983,259.242478 174.978414,259.334495 C173.855612,259.837651 173.327983,260.617836 172.629046,261.535068 C172.078903,262.280014 171.757823,263.18452 171.735308,264.113499 C171.277181,282.402343 172.342228,296.326258 173.408253,319.120014" id="Fill-164" fill="#4E84D9"></path>
                <path d="M195.485158,245.314157 C195.406846,245.305347 195.348111,245.235845 195.356922,245.157532 L195.5899,242.877668 C195.596753,242.799355 195.668213,242.72398 195.746525,242.749431 C195.824837,242.758241 195.883571,242.827743 195.873782,242.906056 L195.641782,245.185921 C195.63493,245.259338 195.57228,245.315136 195.499841,245.315136 C195.494947,245.315136 195.489073,245.315136 195.485158,245.314157 M195.018221,249.873887 C194.939909,249.866056 194.881175,249.795575 194.890964,249.717262 L195.123943,247.437397 C195.131774,247.360064 195.205192,247.289583 195.281546,247.31014 C195.359858,247.317971 195.417614,247.388452 195.408803,247.466765 L195.174846,249.74663 C195.167993,249.821026 195.105343,249.874866 195.032905,249.874866 C195.02801,249.874866 195.022137,249.874866 195.018221,249.873887 M194.552263,254.433617 C194.473951,254.426765 194.416196,254.356284 194.425006,254.277971 L194.657985,251.998106 C194.665816,251.919794 194.74217,251.845397 194.814609,251.870849 C194.892922,251.87868 194.951656,251.949161 194.941867,252.026495 L194.709867,254.307338 C194.703014,254.380756 194.640365,254.435575 194.566947,254.435575 C194.563031,254.435575 194.557158,254.435575 194.552263,254.433617 M194.087284,258.995305 C194.008972,258.987473 193.950238,258.916992 193.959048,258.837701 L194.192027,256.556857 C194.200837,256.478545 194.27817,256.411001 194.348651,256.4296 C194.426964,256.437431 194.485698,256.508891 194.476888,256.587203 L194.243909,258.868047 C194.237057,258.941465 194.174407,258.996284 194.101968,258.996284 C194.097073,258.996284 194.0912,258.996284 194.087284,258.995305 M193.620348,263.556014 C193.542035,263.547203 193.48428,263.477701 193.49309,263.399389 L193.727048,261.118545 C193.732922,261.039254 193.80536,260.966815 193.883673,260.990309 C193.961985,260.997161 194.01974,261.068621 194.01093,261.146933 L193.776972,263.427777 C193.77012,263.501195 193.70747,263.556992 193.635031,263.556992 C193.630137,263.556992 193.625242,263.556992 193.620348,263.556014 M193.155369,268.114765 C193.077057,268.106933 193.018322,268.036452 193.027132,267.95814 L193.260111,265.678275 C193.266964,265.599963 193.342339,265.53144 193.416736,265.551018 C193.495048,265.558849 193.552803,265.62933 193.543993,265.707642 L193.311993,267.986528 C193.304162,268.060925 193.241512,268.115743 193.169073,268.115743 C193.165158,268.115743 193.159284,268.115743 193.155369,268.114765 M192.689411,272.674495 C192.611099,272.666663 192.552365,272.596182 192.562154,272.518849 L192.794154,270.238984 C192.801985,270.160672 192.878339,270.088233 192.951757,270.110748 C193.030069,270.119558 193.087824,270.18906 193.079014,270.267372 L192.846035,272.547237 C192.839183,272.621634 192.776533,272.676452 192.704095,272.676452 C192.6992,272.676452 192.693327,272.676452 192.689411,272.674495 M192.222474,277.235203 C192.144162,277.228351 192.086407,277.156891 192.095217,277.078579 L192.329175,274.797735 C192.336027,274.724317 192.398677,274.66852 192.471116,274.66852 C192.475031,274.66852 192.480905,274.66852 192.485799,274.670478 C192.564111,274.678309 192.621867,274.74879 192.613057,274.827102 L192.379099,277.107946 C192.372246,277.182343 192.309597,277.236182 192.237158,277.236182 C192.232263,277.236182 192.227369,277.236182 192.222474,277.235203 M191.757495,281.795912 C191.679183,281.788081 191.620449,281.7176 191.629259,281.638309 L191.862238,279.358444 C191.86909,279.280132 191.942508,279.209651 192.018862,279.230208 C192.097175,279.238039 192.155909,279.309499 192.14612,279.387811 L191.91412,281.668655 C191.907268,281.742073 191.844618,281.79787 191.772179,281.79787 C191.767284,281.79787 191.761411,281.79787 191.757495,281.795912 M191.291538,286.355642 C191.213225,286.347811 191.15547,286.27733 191.163301,286.199018 L191.39628,283.919153 C191.40509,283.839862 191.479487,283.765465 191.552905,283.791895 C191.631217,283.798748 191.689951,283.870208 191.681141,283.94852 L191.448162,286.227406 C191.44131,286.300824 191.37866,286.356621 191.306221,286.356621 C191.301327,286.356621 191.296432,286.356621 191.291538,286.355642 M190.824601,290.915372 C190.746289,290.907541 190.688533,290.83706 190.697343,290.758748 L190.931301,288.479862 C190.939132,288.401549 191.016466,288.331068 191.087926,288.351625 C191.166238,288.359457 191.223993,288.429938 191.215183,288.50825 L190.981225,290.788115 C190.975352,290.861532 190.912702,290.916351 190.839284,290.916351 C190.835369,290.916351 190.829495,290.916351 190.824601,290.915372 M190.359622,295.476081 C190.28131,295.46825 190.222576,295.397769 190.231386,295.319457 L190.464365,293.039592 C190.471217,292.961279 190.542677,292.887862 190.620989,292.912334 C190.699301,292.920165 190.758035,292.990646 190.749225,293.068959 L190.516246,295.347845 C190.509394,295.422241 190.446744,295.47706 190.374305,295.47706 C190.369411,295.47706 190.363538,295.47706 190.359622,295.476081 M189.893664,300.035811 C189.815352,300.028959 189.756618,299.957499 189.766407,299.879186 L189.999386,297.598343 C190.005259,297.521009 190.079656,297.452486 190.15601,297.471085 C190.234322,297.478916 190.292078,297.549397 190.283268,297.62771 L190.050289,299.908554 C190.043436,299.98295 189.980786,300.03679 189.908348,300.03679 C189.903453,300.03679 189.89758,300.03679 189.893664,300.035811 M189.427706,304.597499 C189.348415,304.589668 189.29066,304.518208 189.29947,304.439895 L189.532449,302.159051 C189.54028,302.080739 189.615656,302.0083 189.689073,302.031794 C189.767386,302.039625 189.825141,302.111085 189.816331,302.188419 L189.584331,304.469262 C189.5765,304.543659 189.51385,304.598478 189.441411,304.598478 C189.437495,304.598478 189.431622,304.598478 189.427706,304.597499 M188.96077,309.15625 C188.883436,309.148419 188.824702,309.077938 188.834491,308.999625 L189.066491,306.71976 C189.074322,306.641448 189.152635,306.573904 189.224095,306.592503 C189.301428,306.599355 189.360162,306.670815 189.350373,306.749127 L189.118373,309.028992 C189.111521,309.10241 189.048871,309.157229 188.976432,309.157229 C188.971538,309.157229 188.965664,309.157229 188.96077,309.15625 M188.495791,313.71598 C188.417478,313.708149 188.359723,313.638646 188.368533,313.560334 L188.601512,311.280469 C188.608365,311.202157 188.679824,311.129718 188.757158,311.153212 C188.836449,311.161043 188.894204,311.231524 188.885394,311.308857 L188.653394,313.588722 C188.646542,313.66214 188.582913,313.717938 188.510474,313.717938 C188.506559,313.717938 188.500685,313.717938 188.495791,313.71598 M188.142407,317.173465 C188.064095,317.165634 188.00536,317.095153 188.015149,317.016841 L188.134576,315.841178 C188.142407,315.762866 188.215824,315.6963 188.2912,315.712942 C188.369512,315.720773 188.426289,315.791254 188.418457,315.869566 L188.299031,317.045229 C188.292179,317.120604 188.229529,317.174444 188.15709,317.174444 C188.152196,317.174444 188.146322,317.174444 188.142407,317.173465" id="Fill-165" fill="#5E9CE4"></path>
                <path d="M175.513286,187.331386 C164.188358,189.935268 155.644493,217.741985 140.49597,215.899689 L140.49597,220.846086 C147.587143,220.846086 157.267514,218.582862 165.206417,207.704314 C176.685033,191.973343 175.513286,187.331386 175.513286,187.331386" id="Fill-166" fill="#F9714E"></path>
                <path d="M175.513286,187.331386 C164.188358,189.935268 155.644493,217.741985 140.49597,215.899689 L140.49597,220.846086 C147.587143,220.846086 157.267514,218.582862 165.206417,207.704314 C176.685033,191.973343 175.513286,187.331386 175.513286,187.331386" id="Fill-167" fill="#F9714E"></path>
                <path d="M193.061296,189.935463 C200.016402,197.905691 199.435912,238.316763 200.227845,263.412898 C187.693971,266.04321 174.255592,265.932594 160.183862,263.899413 C160.183862,263.899413 157.994056,223.462889 165.043136,200.559497 C169.828992,185.009624 185.722461,181.524729 193.061296,189.935463" id="Fill-168" fill="#F9714E"></path>
                <path d="M169.775544,243.231149 C167.174599,234.67358 166.002852,225.894778 166.027325,216.957394 C166.047882,209.454103 166.233873,201.305715 168.204405,193.899335 C166.912253,195.798407 165.82665,198.013664 165.043527,200.558812 C157.994447,223.463183 160.183274,263.898727 160.183274,263.898727 C167.297941,264.927554 174.25011,265.461057 181.006498,265.400365 C175.898582,258.928837 172.235527,251.322761 169.775544,243.231149" id="Fill-169" fill="#F9714E"></path>
                <path d="M59.1208439,177.315349 C60.1428186,177.26053 67.1126076,172.098775 69.7957806,170.359264 C70.5514937,169.869813 71.3179747,169.356868 71.8456034,168.627585 C72.3732321,167.898302 72.6189367,166.898842 72.2352068,166.085374 C71.7594599,165.075146 70.9685063,164.066876 68.9735021,164.07078 C65.5013333,164.078623 64.2972827,165.219045 62.6086751,166.965408 C57.0240338,172.738977 59.1208439,177.315349 59.1208439,177.315349" id="Fill-170" fill="#00AD9F"></path>
                <path d="M90.3658599,198.135635 C93.4004591,199.499247 96.6425857,200.857965 99.9414886,200.436057 C101.221894,200.272581 102.618788,199.691112 103.04559,198.473357 C103.408763,197.431804 102.907565,196.2395 102.08137,195.507281 C101.256155,194.776041 100.168594,194.422657 99.0966954,194.161289 C95.0567629,193.175534 89.386957,193.720783 85.3871595,194.856311 C85.3871595,194.856311 88.5548895,197.321188 90.3658599,198.135635" id="Fill-171" fill="#00AD9F"></path>
                <path d="M110.350751,153.315487 C108.997907,152.460905 107.502143,151.317546 107.503122,149.71704 C107.50508,148.111639 109.179004,146.88801 110.784405,146.880127 C112.389806,146.872348 113.878717,147.747487 115.085705,148.80666 C120.191662,153.289057 119.555376,158.399909 119.555376,158.399909 C119.555376,158.399909 111.858262,154.267959 110.350751,153.315487" id="Fill-172" fill="#00AD9F"></path>
                <path d="M114.376783,139.642856 C113.189374,139.132847 111.963787,138.517117 111.266808,137.427598 C110.928108,136.898012 110.735264,136.226484 110.944749,135.633269 C111.294218,134.639683 111.915821,133.747902 114.419855,134.202113 C122.345053,135.640122 124.071838,141.068138 124.071838,141.068138 C124.071838,141.068138 116.480446,140.547362 114.376783,139.642856" id="Fill-173" fill="#00AD9F"></path>
                <path d="M137.597046,151.648807 C140.776523,151.374714 144.058785,149.791828 146.062599,147.307372 C146.819291,146.370562 147.512354,145.335862 147.763932,144.158241 C148.016489,142.980621 147.74827,141.629735 146.835932,140.843676 C145.721941,139.884351 143.956979,140.038039 142.731392,140.847592 C141.504827,141.657144 140.717789,142.976705 140.079544,144.300182 C139.229857,146.063186 137.597046,151.648807 137.597046,151.648807" id="Fill-174" fill="#00AD9F"></path>
                <path d="M80.8326177,267.567949 C73.1345249,260.781215 65.437411,253.996439 57.7393181,247.210684 C53.6367359,243.594616 49.448989,239.871848 46.8509806,235.059561 C41.2653603,224.715494 44.4849722,211.274177 52.0283983,202.256523 C59.5718245,193.238869 70.6197232,187.915595 81.7195038,184.040118 C92.8192844,180.16562 104.372297,177.446228 114.95228,172.321671 C121.588263,169.107932 128.259487,164.320118 130.080246,157.175105 C131.17466,152.877722 130.254491,148.110464 127.637884,144.529637 C125.022255,140.947831 120.76109,138.621958 116.334491,138.357654" id="Stroke-175" stroke="#086356" stroke-linecap="round" stroke-linejoin="round"></path>
                <path d="M142.974748,144.269738 C140.872064,150.72854 132.678646,154.657857 128.940216,160.252287" id="Stroke-176" stroke="#086356" stroke-linecap="round" stroke-linejoin="round"></path>
                <path d="M113.559889,151.698437 C115.173121,153.401728 117.105475,154.809391 118.513138,156.686927 C121.487045,160.652462 121.735686,167.096581 117.335517,171.09442" id="Stroke-177" stroke="#086356" stroke-linecap="round" stroke-linejoin="round"></path>
                <path d="M72.1085367,187.855295 C78.8991865,193.08851 87.8267814,196.576341 96.3941401,196.909168" id="Stroke-178" stroke="#086356" stroke-linecap="round" stroke-linejoin="round"></path>
                <path d="M56.5608169,197.387166 C53.4332219,188.166879 56.8407831,177.120938 64.619146,171.264162" id="Stroke-179" stroke="#086356" stroke-linecap="round" stroke-linejoin="round"></path>
                <path d="M325.689333,70.7310245 C325.322245,69.5896236 325.340844,68.1878346 326.180743,67.3352101 C326.848354,66.6587882 327.966262,66.3563072 328.834549,66.7390582 C335.567443,69.7090498 334.839139,80.2440034 334.839139,80.2440034 C334.839139,80.2440034 328.452776,79.3179612 325.689333,70.7310245" id="Fill-180" fill="#00AD9F"></path>
                <path d="M325.525857,90.4649249 C321.170717,98.3597772 336.65011,97.7577519 342.231814,93.1079629 C342.231814,93.1079629 329.275055,83.6693806 325.525857,90.4649249" id="Fill-181" fill="#00AD9F"></path>
                <path d="M345.097161,71.3295257 C344.046798,69.884665 343.672857,67.7320574 344.817195,66.3606143 C345.668841,65.3396186 347.153836,65.0244118 348.457735,65.2759899 C349.761634,65.5285468 351.715524,66.7384709 352.546613,67.776108 C357.640824,74.1331038 355.247406,80.3540321 355.247406,80.3540321 C355.247406,80.3540321 346.819051,73.6955342 345.097161,71.3295257" id="Fill-182" fill="#00AD9F"></path>
                <path d="M406.570211,90.878903 C406.193333,89.6494008 406.282414,88.1487426 407.234886,87.287308 C407.836911,86.7440169 408.692473,86.5472574 409.499089,86.6079494 C410.306684,86.6696203 411.078059,86.96427 411.814194,87.3019916 C413.394143,88.0254008 414.621688,89.2901435 415.380338,90.8563882 C417.294093,94.812135 415.99411,99.7076287 415.99411,99.7076287 C415.99411,99.7076287 407.507021,93.9428692 406.570211,90.878903" id="Fill-183" fill="#00AD9F"></path>
                <path d="M387.23306,105.36696 C384.496047,102.955922 380.304385,102.242302 376.969262,103.709678 C376.120554,104.08264 375.315895,104.610268 374.773583,105.363045 C373.550933,107.059484 373.979693,109.539045 375.248351,111.200243 C376.517009,112.86242 378.441532,113.872648 380.341583,114.737998 C383.786343,116.306201 389.132132,116.620429 392.799102,117.558218 C392.799102,117.558218 392.78344,110.256581 387.23306,105.36696" id="Fill-184" fill="#00AD9F"></path>
                <path d="M330.514052,72.4245266 C332.790981,79.9013873 339.236078,85.543784 346.412415,88.5960034 C353.587774,91.6482228 361.492415,92.452881 369.269799,92.9589738 C377.048162,93.4631089 384.918542,93.7146869 392.440432,95.7625519 C399.771436,97.758535 407.071116,101.915936 410.21731,108.850484 C414.046778,117.291565 410.655858,127.386012 405.280702,134.930417 C399.904567,142.474822 392.66558,148.554788 387.464668,156.222535 C385.076145,159.74267 383.08212,163.86483 383.564719,168.09467 C384.208837,173.735109 388.945749,177.888594 393.347875,181.456695" id="Stroke-185" stroke="#086356" stroke-linecap="round" stroke-linejoin="round"></path>
                <path d="M348.442073,69.6818363 C353.596976,75.4015662 357.717178,84.3467814 358.719575,91.9910346" id="Stroke-186" stroke="#086356" stroke-linecap="round" stroke-linejoin="round"></path>
                <path d="M331.110596,91.7741097 C334.058073,92.558211 337.044705,93.3481857 340.093988,93.3560439 C343.142292,93.3638481 346.674174,91.670346 348.866916,89.5441688" id="Stroke-187" stroke="#086356" stroke-linecap="round" stroke-linejoin="round"></path>
                <path d="M411.612932,91.3434903 C414.374417,94.0178532 416.052257,97.7866295 416.196155,101.633718 C416.340054,105.481786 414.211919,110.1443 411.657961,113.019338" id="Stroke-188" stroke="#086356" stroke-linecap="round" stroke-linejoin="round"></path>
                <path d="M382.722862,108.805063 C388.237023,113.898295 393.038542,118.015561 399.17039,122.341333 C401.969073,124.315781 407.526305,126.846245 409.991183,126.194295" id="Stroke-189" stroke="#086356" stroke-linecap="round" stroke-linejoin="round"></path>
            </g>
        </g>
    </g>
</svg>