<?xml version="1.0" encoding="UTF-8"?>
<svg width="232px" height="76px" viewBox="0 0 232 76" version="1.1" xmlns="http://www.w3.org/2000/svg" xmlns:xlink="http://www.w3.org/1999/xlink">
    <title>logo-light</title>
    <g id="Symbols" stroke="none" stroke-width="1" fill="none" fill-rule="evenodd">
        <g id="Logo/Light">
            <g id="logo-light">
                <path d="M117.068814,31.6163902 C117.728446,31.6163902 118.283061,31.8340797 118.730474,32.2727404 C119.175698,32.7103073 119.399951,33.2692989 119.399951,33.9486213 C119.399951,34.5393365 119.175698,35.048008 118.730474,35.4768234 C118.283061,35.9067328 117.728446,36.1211406 117.068814,36.1211406 C116.424496,36.1211406 115.910355,35.9067328 115.525297,35.4768234 C115.141332,35.048008 114.949896,34.5393365 114.949896,33.9486213 C114.949896,33.2692989 115.141332,32.7103073 115.525297,32.2727404 C115.910355,31.8340797 116.424496,31.6163902 117.068814,31.6163902 Z M112.054298,31.6163902 C112.71393,31.6163902 113.255419,31.8340797 113.675483,32.2727404 C114.095547,32.7103073 114.305579,33.2692989 114.305579,33.9486213 C114.305579,34.5393365 114.095547,35.048008 113.675483,35.4768234 C113.255419,35.9067328 112.71393,36.1211406 112.054298,36.1211406 C111.463583,36.1211406 110.962569,35.9067328 110.551256,35.4768234 C110.141037,35.048008 109.935381,34.5393365 109.935381,33.9486213 C109.935381,33.2692989 110.141037,32.7103073 110.551256,32.2727404 C110.962569,31.8340797 111.463583,31.6163902 112.054298,31.6163902 Z M134.952169,31.5624601 C135.559293,31.5624601 136.074528,31.7856192 136.493498,32.2319373 C136.914656,32.6804433 137.124688,33.2339653 137.124688,33.8946912 C137.124688,34.4854064 136.914656,34.9940779 136.493498,35.4239873 C136.074528,35.8528027 135.559293,36.0672105 134.952169,36.0672105 C134.307852,36.0672105 133.777302,35.8528027 133.356144,35.4239873 C132.93608,34.9940779 132.726048,34.4854064 132.726048,33.8946912 C132.726048,33.2339653 132.93608,32.6804433 133.356144,32.2319373 C133.777302,31.7856192 134.307852,31.5624601 134.952169,31.5624601 Z M75.211719,8.39603205 L75.211719,29.1224782 L44.3499127,29.1230251 L44.3499127,30.9728388 C44.3499127,31.4377536 44.2678689,31.8753204 44.108157,32.2866332 C43.9473512,32.697946 43.7230983,33.0370603 43.4386798,33.30507 C43.133477,33.6091789 42.7812357,33.8542163 42.3786742,34.04237 C41.9772067,34.2294298 41.4882257,34.3421033 40.917201,34.3782026 L40.917201,17.1905781 C40.917201,16.6819066 40.931422,15.9380431 41.3164808,15.3626427 C41.7037274,14.7850545 42.4629058,14.3748356 42.6871588,14.2545047 C43.133477,14.0127491 43.6880929,13.8475676 44.3499127,13.7589603 L44.3499127,25.8248652 L52.6348028,25.8243183 C52.5440077,25.3944089 52.3842958,24.9798143 52.1523854,24.5783468 C51.919381,24.1746914 51.6469957,23.8224501 51.3341354,23.5183412 C51.0212752,23.2142322 50.66794,22.9735705 50.2741298,22.7941681 C49.8825075,22.6158596 49.4788521,22.5261584 49.0686332,22.5261584 C48.9078274,22.5261584 48.7382703,22.5403793 48.5588679,22.5655394 C48.3805594,22.5928874 48.0676992,22.6968095 47.6202871,22.875118 C47.5852817,22.4988105 47.5579338,22.2143921 47.5404311,22.0163931 C47.5218346,21.8205819 47.5043319,20.8371505 47.5404311,20.5680469 C47.5754365,20.3011312 47.6202871,20.0418728 47.673889,19.7902719 C47.8882968,19.0584414 48.1606821,18.3703676 48.492139,17.7260505 C48.8225019,17.0828272 49.2294391,16.5205539 49.7118565,16.0370426 C50.4086816,15.358814 51.2225559,14.8304521 52.1523854,14.4552385 C53.0811209,14.080025 54.0908064,13.8918712 55.1814417,13.8918712 L58.3198896,13.8918712 C59.3919283,13.8918712 60.3972381,14.080025 61.3358189,14.4552385 C62.2754936,14.8304521 63.0828044,15.358814 63.7621269,16.0370426 C64.2817375,16.5555592 64.7039895,17.1331474 65.0354463,17.7665254 C65.3669032,18.4009973 65.6305372,19.0682867 65.8274423,19.7640179 C65.8810442,20.0145249 65.9258948,20.2781589 65.9619941,20.5560138 C65.9959055,20.8327748 65.9784028,21.8205819 65.9619941,22.0163931 C65.9423036,22.2143921 65.9160495,22.4988105 65.8810442,22.875118 C65.4697314,22.7143122 65.1601529,22.6158596 64.9555904,22.5797604 C64.749934,22.5436611 64.5749073,22.5261584 64.432698,22.5261584 C64.0213852,22.5261584 63.6144481,22.6158596 63.2129805,22.7941681 C62.8104191,22.9735705 62.4428629,23.2142322 62.1135939,23.5183412 C61.783231,23.8224501 61.5010004,24.1746914 61.26909,24.5783468 C61.0371796,24.9798143 60.8840312,25.3944089 60.8129266,25.8243183 L71.7801012,25.8243183 L71.7801012,11.7466999 C71.7801012,10.7643624 72.1017128,9.95048816 72.744936,9.30726494 L72.744936,9.33461287 C72.9593438,9.08410586 73.2579831,8.87407379 73.6441358,8.70451665 C74.0270068,8.53386559 74.5498992,8.43213131 75.211719,8.39603205 Z M126.908597,29.1230251 L126.908597,30.9728388 C126.908597,31.4377536 126.827647,31.8753204 126.666842,32.2866332 C126.506036,32.697946 126.281783,33.0370603 125.99627,33.30507 C125.691068,33.6091789 125.338826,33.8542163 124.938453,34.04237 C124.534797,34.2294298 124.048004,34.3421033 123.475886,34.3782026 L123.475886,17.1905781 C123.475886,16.6873762 123.505421,15.9238221 123.885011,15.3527974 C124.275539,14.7664579 125.019403,14.3770234 125.244749,14.2545047 C125.691068,14.0127491 126.246777,13.8475676 126.908597,13.7589603 L126.908597,25.8248652 L127.980328,25.8241033 L127.980636,25.8237713 L131.655103,25.8237713 C132.155023,25.8237713 132.654943,25.7176614 133.155957,25.5021597 C133.655878,25.287752 134.112041,24.9934883 134.523354,24.6182748 C134.934667,24.0997581 135.243151,23.5987441 135.447714,23.1152327 C135.654464,22.6339092 135.756198,22.1066412 135.756198,21.5345226 L135.756198,17.24418 C135.756198,16.2607486 136.051556,15.4742222 136.641177,14.884601 C136.909187,14.6154974 137.25924,14.3934322 137.688056,14.2140298 C138.116871,14.0357213 138.679145,13.9099209 139.37597,13.8388163 L139.37597,21.5345226 C139.37597,22.5890587 139.175783,23.5932745 138.773221,24.5504519 C138.37066,25.5076293 137.794166,26.342288 137.043739,27.0577097 C135.630398,28.4338574 133.83528,29.1230251 131.655103,29.1230251 L126.908597,29.1230251 Z M0.000328175111,13.8120153 C0.624954804,13.8645233 1.16206807,13.9914177 1.60838622,14.1861349 C2.05579829,14.3841339 2.40366391,14.6346409 2.65307699,14.9376559 C2.90467791,15.2242622 3.1092404,15.5644704 3.27114012,15.9560927 C3.43194592,16.3499028 3.51289578,16.7787183 3.51289578,17.243633 L3.51289578,21.5077217 C3.51289578,22.1334422 3.62775707,22.6825886 3.86185532,23.1562546 C4.09376573,23.6299207 4.42412868,24.1090564 4.85294415,24.5914738 L4.85294415,24.5641259 C5.29926231,25.0115379 5.75542571,25.3331495 6.22034045,25.5289607 C6.68525519,25.7269597 7.17751786,25.8243183 7.69603453,25.8243183 L17.0807488,25.8243183 C16.6880326,25.1449958 16.3697027,24.430668 16.1279471,23.679147 C15.8861914,22.9287199 15.7669544,22.2045468 15.7669544,21.5077217 C15.7669544,20.434589 15.9540143,19.4522515 16.3292278,18.5574274 C16.7044413,17.6647911 17.2404607,16.8334142 17.9372858,16.0643905 C18.7063095,15.385068 19.5420621,14.8534243 20.4456376,14.4694594 C21.3481192,14.0854946 22.3621803,13.8918712 23.4878209,13.8918712 C24.5073516,13.8918712 25.4601533,14.080025 26.3451322,14.4552385 C27.2290172,14.831546 28.074615,15.358814 28.8786441,16.0370426 C29.6301651,16.8060662 30.2011897,17.6505702 30.593906,18.5716483 C30.9877161,19.4916326 31.1835272,20.4706883 31.1835272,21.5077217 L31.1835272,29.1224782 L7.72228854,29.1224782 C6.64915593,29.1224782 5.65369143,28.9474514 4.73261328,28.5995858 C3.81153513,28.2506263 2.97687643,27.7277339 2.22535543,27.0309088 C1.47383442,26.2979844 0.915936736,25.4491047 0.550568445,24.483176 C0.184106237,23.5183412 0.000328175111,22.5261584 0.000328175111,21.5077217 L0.000328175111,13.8120153 Z M34.0536374,8.39625083 C34.6793579,8.43125618 35.2099077,8.52095737 35.6485684,8.66316659 C36.0861352,8.80756364 36.4383765,9.01212612 36.7074801,9.2801358 C37.3332007,9.90585634 37.6460609,10.728482 37.6460609,11.7469187 L37.6460609,29.1226969 C37.0203404,29.0865977 36.4886967,28.9979904 36.050036,28.8535933 C35.6124692,28.7124781 35.259134,28.5057277 34.9911243,28.2377181 C34.7056119,27.9336091 34.4780772,27.5944948 34.3063322,27.2192813 C34.1367751,26.8429738 34.0536374,26.3966557 34.0536374,25.878139 L34.0536374,8.39625083 Z M78.3754364,8.39625083 C79.001157,8.43125618 79.5317067,8.52095737 79.9714614,8.66316659 C80.4090282,8.80756364 80.7623634,9.01212612 81.0303731,9.2801358 C81.6560936,9.90585634 81.9689539,10.728482 81.9689539,11.7469187 L81.9689539,29.1226969 C81.3421394,29.0865977 80.8104958,28.9979904 80.3729289,28.8535933 C79.9353621,28.7124781 79.5820269,28.5057277 79.3140172,28.2377181 C79.0285049,27.9336091 78.8009702,27.5944948 78.6303191,27.2192813 C78.460762,26.8429738 78.3754364,26.3966557 78.3754364,25.878139 L78.3754364,8.39625083 Z M119.347443,13.8391444 L119.347443,21.5348508 C119.347443,22.5882929 119.145068,23.5946966 118.744694,24.5507801 C118.341039,25.5079575 117.764545,26.3426162 117.014118,27.0580379 C115.601871,28.4330916 113.804565,29.1222594 111.625482,29.1222594 L87.3855935,29.1228063 C87.4742008,28.5156824 87.5989073,28.0234197 87.7597131,27.6471122 C87.9216128,27.2729926 88.1447719,26.9601323 88.4313782,26.7085314 C88.6993879,26.4591183 89.0166238,26.2490863 89.383086,26.0795291 C89.7495482,25.9088781 90.200242,25.8246465 90.7373553,25.8246465 L97.2264712,25.8246465 C97.7799932,25.8246465 98.3072612,25.7174426 98.8082752,25.5030349 C99.3081953,25.2886271 99.7545134,24.9845182 100.148324,24.590708 L100.148324,24.618056 C100.559636,24.1345446 100.885624,23.6532211 101.127379,23.1697098 C101.369135,22.6883863 101.488372,22.1501791 101.488372,21.5605579 C101.488372,21.0245385 101.377886,20.5158671 101.153633,20.0334497 C100.92938,19.5499383 100.620896,19.1036202 100.229273,18.6923074 C99.799364,18.2809946 99.3311675,17.9637586 98.8214022,17.7405996 C98.3116369,17.5174405 97.7799932,17.404767 97.2264712,17.404767 L92.8825266,17.404767 C91.9165979,17.404767 91.1289776,17.1006581 90.5229476,16.4935341 C90.2363413,16.2080218 90.0208396,15.8765649 89.8786304,15.5013514 C89.7353273,15.1261378 89.620466,14.5901185 89.5307648,13.8921994 L97.2264712,13.8921994 C98.3521118,13.8921994 99.3530459,14.0847288 100.229273,14.4686937 C100.776232,14.7093554 101.289279,15.0079948 101.766227,15.3624239 C102.053927,15.5757377 102.562598,16.0636247 102.562598,16.0636247 C102.826232,16.3185074 103.0658,16.5843292 103.284584,16.8599963 C104.321617,18.1781664 104.841228,19.7446556 104.841228,21.5605579 C104.841228,22.3295815 104.742775,23.0450033 104.54587,23.7057292 C104.348965,24.367549 104.000005,25.0742194 103.500085,25.8246465 L107.950328,25.8241033 L107.951015,25.8240995 L111.625482,25.8240995 C112.124309,25.8240995 112.625323,25.7168956 113.125243,25.5024879 C113.626257,25.2880802 114.08242,24.9927226 114.493733,24.617509 C114.905046,24.0989923 115.212436,23.5990723 115.419187,23.1166548 C115.623749,22.6342374 115.726577,22.1069694 115.726577,21.5348508 L115.726577,17.2434143 C115.726577,16.2610768 116.020841,15.4745504 116.61265,14.8838352 C116.88066,14.6169195 117.228525,14.3926665 117.657341,14.214358 C118.086156,14.0360495 118.650618,13.910249 119.347443,13.8391444 Z M23.4878209,17.217379 C22.933205,17.217379 22.3928099,17.3508369 21.8666358,17.6199405 C21.5920627,17.758868 20.9608725,18.0892309 20.4587646,18.6000902 C19.9971316,19.0704745 19.6580173,19.7202612 19.5464378,19.9521716 C19.3145274,20.434589 19.1974783,20.9443544 19.1974783,21.4803737 C19.1974783,21.9988904 19.3276544,22.5217828 19.5869127,23.0490508 C19.7138071,23.309403 20.0113525,24.0182613 20.4850186,24.50943 C20.9729056,25.0170075 21.6434768,25.3036138 21.9060169,25.4359777 C22.4256274,25.6952361 22.9518015,25.8243183 23.4878209,25.8243183 L27.6720536,25.8243183 L27.6720536,21.4803737 C27.6720536,20.909349 27.5550044,20.3809871 27.3220001,19.8985697 C27.0900897,19.4161523 26.7597267,18.9424862 26.3309113,18.4775715 C26.1088461,18.2358158 25.622053,17.7599619 24.9908629,17.4908583 C24.4526557,17.2600418 23.7689576,17.217379 23.4878209,17.217379 Z M57.1450227,17.1725284 L56.2764526,17.1725284 C54.2942749,17.2151912 53.5208756,17.5564933 52.7945147,18.0115628 C51.8723426,18.5902449 51.4019583,19.5233562 51.4019583,19.5233562 C52.0440876,19.8088685 52.6260515,20.184082 53.1445681,20.6489968 C53.6630848,21.1139115 54.1104969,21.6324282 54.4857104,22.2045468 C54.860924,22.7766654 55.1650329,23.375038 55.3969433,24.0007586 C55.6299476,24.6264791 55.7809082,25.2336031 55.8531067,25.8243183 L57.5683686,25.8243183 C57.6394732,25.2336031 57.7915277,24.6264791 58.024532,24.0007586 C58.2575364,23.375038 58.5605514,22.7766654 58.9368588,22.2045468 C59.3120724,21.6324282 59.7572966,21.1139115 60.2769072,20.6489968 C60.79433,20.184082 61.3751999,19.8088685 62.0195171,19.5233562 C62.0195171,19.5233562 61.5491327,18.5902449 60.6269607,18.0115628 C59.9005998,17.5564933 59.1272004,17.2151912 57.1450227,17.1725284 Z M25.8758418,7.4301033 C26.519065,7.4301033 27.0583661,7.62153878 27.4970268,8.00550366 C27.9356876,8.39056246 28.154471,8.91454872 28.154471,9.57527461 C28.154471,10.2184978 27.9356876,10.7556111 27.4970268,11.1844266 C27.0583661,11.6121481 26.519065,11.8276498 25.8758418,11.8276498 C25.26653,11.8276498 24.7567647,11.6121481 24.3454518,11.1844266 C23.934139,10.7556111 23.7295766,10.2184978 23.7295766,9.57527461 C23.7295766,8.91454872 23.934139,8.39056246 24.3454518,8.00550366 C24.7567647,7.62153878 25.26653,7.4301033 25.8758418,7.4301033 Z M20.967436,7.4301033 C21.5581512,7.4301033 22.0668227,7.62153878 22.4956381,8.00550366 C22.9255475,8.39056246 23.1399553,8.91454872 23.1399553,9.57527461 C23.1399553,10.2184978 22.9255475,10.7556111 22.4956381,11.1844266 C22.0668227,11.6121481 21.5581512,11.8276498 20.967436,11.8276498 C20.2881136,11.8276498 19.7313098,11.6121481 19.2915551,11.1844266 C18.8539883,10.7556111 18.6352049,10.2184978 18.6352049,9.57527461 C18.6352049,8.91454872 18.8539883,8.39056246 19.2915551,8.00550366 C19.7313098,7.62153878 20.2881136,7.4301033 20.967436,7.4301033 Z" id="Arabic-Word" fill="#4A4A49"></path>
                <path d="M52.6986875,46.1090407 C55.9509029,46.4569063 58.5850551,48.557227 59.733668,51.5654989 C60.8757174,54.5584559 60.3331345,58.2777738 60.0662188,59.3487186 C59.5159785,61.5671824 58.4067466,63.2879139 56.8413514,64.4441842 L61.9455683,68.256485 L57.7919653,68.256485 L54.5703796,65.6190511 C53.2314251,66.0730266 51.6955656,66.2447716 49.9945246,66.1124076 C45.9787552,65.8017352 42.7746722,62.4193437 42.3206966,58.0480512 C42.1237915,56.1511991 42.1948961,54.2849766 42.7495121,52.4548534 C44.0983118,48.0058928 47.8876404,45.5938058 52.6986875,46.1090407 Z M123.371307,46.8904256 L123.371037,46.9413012 C123.369562,47.2213643 123.362556,48.5867455 123.362556,49.2532864 C121.650576,48.3026725 119.95391,48.0095028 118.181765,48.1757782 C116.071599,48.3726832 114.849693,49.5595832 114.940489,51.2781269 C114.996278,52.3173481 115.544331,53.0590238 116.374614,53.5655074 C117.469625,54.2317029 118.61058,54.8224181 119.736221,55.4361055 C120.796226,56.0158816 121.844199,56.6087846 122.70183,57.4893878 C125.28238,60.1410427 124.436782,64.2552647 120.977817,65.5340537 C119.764663,65.9825597 118.546039,66.1553986 117.324134,66.1553986 C114.953616,66.1553986 112.498866,64.9586534 112.498866,64.9586534 C112.498866,64.9586534 112.506523,63.1897895 112.506523,62.4393624 C114.552148,63.6525164 116.584646,64.2694856 118.818424,63.9839733 C120.137688,63.81551 121.250202,63.3451257 121.67136,61.9503815 C122.088142,60.5698582 121.619946,59.3381076 120.194572,58.4389078 C118.617144,57.4445372 116.924854,56.6372264 115.328829,55.6702038 C113.769997,54.7239655 112.620291,53.4692427 112.562313,51.4651867 C112.502147,49.3922139 113.395878,47.874951 115.18662,46.9866903 C119.374134,44.9137176 123.371307,46.8904256 123.371307,46.8904256 Z M101.852318,46.1090407 C105.104533,46.4569063 107.73978,48.557227 108.888393,51.5654989 C110.030442,54.5584559 109.486765,58.2777738 109.220943,59.3487186 C108.669609,61.5671824 107.560377,63.2879139 105.994982,64.4441842 C105.321129,64.9430103 104.560857,65.3346326 103.72401,65.6190511 C102.38615,66.0730266 100.849196,66.2447716 99.1481552,66.1124076 C95.1323858,65.8017352 91.9283028,62.4193437 91.4754211,58.0480512 C91.2785161,56.1511991 91.3485267,54.2849766 91.9031427,52.4548534 C93.2519424,48.0058928 97.041271,45.5938058 101.852318,46.1090407 Z M33.2724712,46.3959751 L40.7275158,65.8140965 L38.0408556,65.8140965 L36.1122799,60.1880811 L27.9232169,60.1880811 L26.0121438,65.8140965 L23.4228422,65.8140965 L30.9041408,46.3959751 L33.2724712,46.3959751 Z M13.3711667,46.3966315 C14.4847743,46.3966315 15.4561726,46.5246198 16.2853617,46.7795025 C17.1145508,47.035479 17.8004368,47.3931899 18.3452075,47.8526351 C18.8877904,48.3120802 19.2947275,48.8568509 19.5627372,49.4847593 C19.8307468,50.1137616 19.9642047,50.7996476 19.9642047,51.545699 C19.9642047,51.8377748 19.9401385,52.1232872 19.9062271,52.4000482 C19.6272783,54.6272633 17.4164719,56.3304921 15.6399507,56.7210205 C15.6399507,56.7210205 16.9417119,57.3456471 17.8485692,58.7786784 C19.0201543,60.6295861 22.109376,65.6900463 22.109376,65.6900463 L19.3155119,65.6714497 C19.3155119,65.6714497 16.6091612,60.5551997 15.3303721,59.0510638 C14.725436,58.3378299 14.291151,58.111389 13.7737282,57.8729151 C13.2541176,57.6355351 12.8318656,57.5162982 12.1831728,57.5162982 L10.5499547,57.5162982 L10.5499547,65.8136589 L8.28007684,65.8136589 L8.28007684,46.3966315 L13.3711667,46.3966315 Z M2.19330366,46.3966315 L2.19330366,65.8136589 L-4.85796753e-15,65.8136589 L-4.85796753e-15,46.3966315 L2.19330366,46.3966315 Z M139.252685,46.3951 L139.252685,48.3707142 L133.720747,48.3707142 L133.720747,65.791343 L131.680592,65.791343 L131.680592,48.3707142 L126.148653,48.3707142 L126.148653,46.3951 L139.252685,46.3951 Z M82.3472304,46.3948812 C83.5964837,46.3948812 84.6455501,46.5370904 85.4966176,46.819321 C86.3454972,47.1026455 87.0281014,47.4964557 87.5422424,48.0007514 C88.0563834,48.5039533 88.4261274,49.101232 88.6514743,49.7903997 C88.8757273,50.4806614 88.9873068,51.2278067 88.9873068,52.0318357 C88.9873068,53.0579299 88.8144679,53.965881 88.4655084,54.757877 C88.1165489,55.548779 87.6330375,56.2138806 87.0138805,56.7531817 C86.3925356,57.2924828 85.661799,57.6994199 84.8216707,57.9739931 C83.9804485,58.2474723 83.0626521,58.3853059 82.0693755,58.3853059 L79.2886384,58.3853059 L79.2886384,65.7834668 L77.249577,65.7834668 L77.249577,46.3948812 L82.3472304,46.3948812 Z M94.6926311,51.8105363 C93.7201389,53.7106702 93.639189,55.7398863 93.8667238,57.7887929 C94.2802244,61.5037352 96.8520234,64.0033356 100.257387,64.0974125 C103.88591,64.1980528 106.303467,62.1349253 107.023264,58.2941826 C107.15344,57.6039209 107.221263,56.8972505 107.252987,56.1938619 C107.302213,55.0813482 107.105308,53.9939947 106.797917,52.9307073 C105.994982,50.140125 104.065312,48.4336144 101.45632,48.2006101 C98.3703802,47.924943 96.039243,49.1796658 94.6926311,51.8105363 Z M45.5379066,51.8105363 C44.5665083,53.7106702 44.4855584,55.7398863 44.7130932,57.7887929 C45.1265938,61.5037352 47.6972988,64.0033356 51.1037565,64.0974125 C54.7322793,64.1980528 57.149836,62.1349253 57.8696334,58.2941826 C57.9998095,57.6039209 58.0676324,56.8972505 58.099356,56.1938619 C58.1485822,55.0813482 57.9516772,53.9939947 57.6442865,52.9307073 C56.8413514,50.140125 54.9105878,48.4336144 52.3015957,48.2006101 C49.2167496,47.924943 46.8856124,49.1796658 45.5379066,51.8105363 Z M31.9849309,48.9830889 L28.726152,58.2430967 L35.2809029,58.2310636 L31.9849309,48.9830889 Z M82.0978173,48.4109703 L79.2886384,48.4109703 L79.2886384,56.3681229 L82.3275399,56.3681229 C83.0002989,56.3681229 83.6008593,56.2827973 84.1335969,56.1099584 C84.6652406,55.9382135 85.1159344,55.6855186 85.4856784,55.3540618 C85.8565163,55.0226049 86.136559,54.6134799 86.3279945,54.1277808 C86.51943,53.6409877 86.6156947,53.0841839 86.6156947,52.4562755 C86.6156947,51.8557151 86.545684,51.3054748 86.4045687,50.8044608 C86.2634534,50.3056346 86.0216977,49.879007 85.6782078,49.5256718 C85.3314361,49.1712427 84.8687092,48.8977634 84.2856514,48.7030462 C83.7036875,48.5094229 82.9740449,48.4109703 82.0978173,48.4109703 Z M13.104251,48.3733396 L10.5499547,48.3733396 L10.5499547,55.5384962 L13.3897633,55.5384962 C14.0384561,55.5384962 14.6215139,55.4520767 15.1400306,55.2781439 C15.6585473,55.105305 16.0950202,54.8602676 16.4494493,54.5441256 C16.8038784,54.2279836 17.0762637,53.8483943 17.2666053,53.4053579 C17.4569469,52.9634155 17.5521177,52.4744346 17.5521177,51.9362274 C17.5521177,51.3903628 17.4481955,50.8981001 17.2414452,50.4594394 C17.0325071,50.0229665 16.7371495,49.646659 16.3520907,49.3348927 C15.9670319,49.0220324 15.5010232,48.7846524 14.9529708,48.6194709 C14.4038244,48.4553834 13.7868552,48.3733396 13.104251,48.3733396 Z" id="English-Word" fill="#4A4A49"></path>
                <polygon id="Separator" fill="#FAB900" points="150.539393 75.688448 151.349986 75.688448 151.349986 0.000328175111 150.539393 0.000328175111"></polygon>
                <path d="M169.431012,34.3406812 L198.041318,38.6780623 L196.230886,65.6748408 L169.431012,34.3406812 Z M229.934032,28.6723313 L199.600807,51.671937 L199.784585,49.0454422 L229.934032,28.6723313 Z M202.189671,10.0139353 L232.000004,14.3535042 L200.401116,36.495479 L202.189671,10.0139353 Z M199.946375,10.3033858 L198.199389,36.289385 L170.124009,32.3458141 L199.946375,10.3033858 Z M168.62392,13.903248 L181.700604,20.6330256 L168.62392,30.503439 L169.036327,22.2192053 L160.619729,18.4659759 L168.62392,13.903248 Z" id="Shape" fill="#2B3F79"></path>
                <polygon id="Fill-2" fill="#CC171A" points="231.585628 18.6289696 200.371799 39.1213174 200.183646 42.2247601"></polygon>
                <polygon id="Fill-3" fill="#25632C" points="230.479897 24.335716 200.124793 44.2165642 199.946484 46.9021306"></polygon>
                <path d="M166.96226,19.2207787 C166.152762,19.2207787 165.497505,18.5644285 165.497505,17.7571177 C165.497505,16.9476191 166.152762,16.2934567 166.96226,16.2934567 C167.769571,16.2934567 168.425921,16.9476191 168.425921,17.7571177 C168.425921,18.5644285 167.769571,19.2207787 166.96226,19.2207787 L166.96226,19.2207787 Z" id="Path" fill="#FAB900"></path>
            </g>
        </g>
    </g>
</svg>