<?xml version="1.0" encoding="UTF-8"?>
<svg width="24px" height="24px" viewBox="0 0 24 24" version="1.1" xmlns="http://www.w3.org/2000/svg" xmlns:xlink="http://www.w3.org/1999/xlink">
    <title>icon/package_external_24px</title>
    <defs>
        <path d="M14.5,1 C14.7761424,1 15,1.22385763 15,1.5 L15,2 L21,2 C22.1045695,2 23,2.8954305 23,4 L23,21 C23,22.1045695 22.1045695,23 21,23 L3,23 C1.8954305,23 1,22.1045695 1,21 L1,4 C1,2.8954305 1.8954305,2 3,2 L9,2 L9,1.5 C9,1.22385763 9.22385763,1 9.5,1 L14.5,1 Z M9,3 L3,3 C2.48716416,3 2.06449284,3.38604019 2.00672773,3.88337887 L2,4 L2,21 C2,21.5128358 2.38604019,21.9355072 2.88337887,21.9932723 L3,22 L21,22 C21.5128358,22 21.9355072,21.6139598 21.9932723,21.1166211 L22,21 L22,4 C22,3.48716416 21.6139598,3.06449284 21.1166211,3.00672773 L21,3 L15,3 L15,7.06574145 C15,7.34188383 14.7761424,7.56579459 14.5,7.56579459 C14.4012875,7.56579459 14.3047837,7.53652244 14.2226499,7.4817666 L12,6 L9.7773501,7.4817666 C9.54758575,7.63494283 9.23715108,7.5728559 9.08397485,7.34309155 C9.02921901,7.26095779 9,7.16445395 9,7.06574145 L9,3 Z M12,9 C15.312,9 18,11.688 18,15 C18,18.312 15.312,21 12,21 C8.688,21 6,18.312 6,15 C6,11.688 8.688,9 12,9 Z M7.326,13.926 C7.248,14.274 7.2,14.628 7.2,15 C7.2,17.448 9.03,19.464 11.4,19.758 L11.4,19.758 L11.4,18.6 C10.74,18.6 10.2,18.06 10.2,17.4 L10.2,17.4 L10.2,16.8 Z M13.8,10.554 L13.8,10.8 C13.8,11.46 13.26,12 12.6,12 L12.6,12 L11.4,12 L11.4,13.2 C11.4,13.53 11.13,13.8 10.8,13.8 L10.8,13.8 L9.6,13.8 L9.6,15 L13.2,15 C13.53,15 13.8,15.27 13.8,15.6 L13.8,15.6 L13.8,17.4 L14.4,17.4 C14.94,17.4 15.384,17.748 15.54,18.234 C16.32,17.382 16.8,16.248 16.8,15 C16.8,12.99 15.558,11.268 13.8,10.554 L13.8,10.554 Z M14,2 L10,2 L10,6.13 L12,4.79814957 L14,6.131 L14,2 Z" id="path-1"></path>
    </defs>
    <g id="Symbols" stroke="none" stroke-width="1" fill="none" fill-rule="evenodd">
        <g id="icon/package_external_24px">
            <mask id="mask-2" fill="white">
                <use xlink:href="#path-1"></use>
            </mask>
            <g id="Mask" fill-rule="nonzero"></g>
            <g id="✱-/-Color-/-Icons-/-Selected-/-On-Surface-/-Inactive" mask="url(#mask-2)" fill="#000000" fill-opacity="0.54">
                <rect id="Rectangle" x="0" y="0" width="24" height="24"></rect>
            </g>
        </g>
    </g>
</svg>