<?xml version="1.0" encoding="UTF-8"?>
<svg width="24px" height="24px" viewBox="0 0 24 24" version="1.1" xmlns="http://www.w3.org/2000/svg" xmlns:xlink="http://www.w3.org/1999/xlink">
    <title>icon/packages_alt_24px</title>
    <defs>
        <path d="M13.5,1 C13.7454599,1 13.9496084,1.17687516 13.9919443,1.41012437 L14,1.5 L14,1.999 L17,2 C18.1045695,2 19,2.8954305 19,4 L18.999,12 L19.5,12 C19.7454599,12 19.9496084,12.1768752 19.9919443,12.4101244 L20,12.5 L20,13 L21,13 C22.1045695,13 23,13.8954305 23,15 L23,21 C23,22.1045695 22.1045695,23 21,23 L15,23 C13.8994741,23 13.0065587,22.1111134 13.000036,21.0121223 L13,21 C13,22.1045695 12.1045695,23 11,23 L3,23 C1.8954305,23 1,22.1045695 1,21 L1,13 C1,11.8954305 1.8954305,11 3,11 L4.999,10.998 L5,4 C5,2.8954305 5.8954305,2 7,2 L10,1.999 L10,1.5 C10,1.25454011 10.1768752,1.05039163 10.4101244,1.00805567 L10.5,1 L13.5,1 Z M16,14 L15,14 C14.4871642,14 14.0644928,14.3860402 14.0067277,14.8833789 L14,15 L14,21 C14,21.5128358 14.3860402,21.9355072 14.8833789,21.9932723 L15,22 L21,22 C21.5128358,22 21.9355072,21.6139598 21.9932723,21.1166211 L22,21 L22,15 C22,14.4871642 21.6139598,14.0644928 21.1166211,14.0067277 L21,14 L20,14 L20,16.131 L18,14.7981496 L16,16.13 L16,14 Z M9,11.999 L9,14.131 L7,12.7981496 L5,14.13 L5,12 L4.999,12 L4.999,11.998 L3,12 C2.48716416,12 2.06449284,12.3860402 2.00672773,12.8833789 L2,13 L2,21 C2,21.5128358 2.38604019,21.9355072 2.88337887,21.9932723 L3,22 L11,22 C11.5128358,22 11.9355072,21.6139598 11.9932723,21.1166211 L12,21 L12,13 C12,12.4871642 11.6139598,12.0644928 11.1166211,12.0067277 L11,12 L9,11.999 Z M20.5,20 C20.7761424,20 21,20.2238576 21,20.5 C21,20.7761424 20.7761424,21 20.5,21 L19.5,21 C19.2238576,21 19,20.7761424 19,20.5 C19,20.2238576 19.2238576,20 19.5,20 L20.5,20 Z M10.5,20 C10.7761424,20 11,20.2238576 11,20.5 C11,20.7761424 10.7761424,21 10.5,21 L9.5,21 C9.22385763,21 9,20.7761424 9,20.5 C9,20.2238576 9.22385763,20 9.5,20 L10.5,20 Z M20.5,18 C20.7761424,18 21,18.2238576 21,18.5 C21,18.7761424 20.7761424,19 20.5,19 L18.5,19 C18.2238576,19 18,18.7761424 18,18.5 C18,18.2238576 18.2238576,18 18.5,18 L20.5,18 Z M10.5,18 C10.7761424,18 11,18.2238576 11,18.5 C11,18.7761424 10.7761424,19 10.5,19 L8.5,19 C8.22385763,19 8,18.7761424 8,18.5 C8,18.2238576 8.22385763,18 8.5,18 L10.5,18 Z M10,2.999 L7,3 C6.48716416,3 6.06449284,3.38604019 6.00672773,3.88337887 L6,4 L5.999,9.999 L8.5,10 C8.74545989,10 8.94960837,10.1768752 8.99194433,10.4101244 L9,10.5 L9,10.999 L11,11 C12.1045695,11 13,11.8954305 13,13 L13,14.975 L13.0054857,14.8507377 C13.0818349,13.8158778 13.9456382,13 15,13 L16,13 L16,12.5 C16,12.2545401 16.1768752,12.0503916 16.4101244,12.0080557 L16.5,12 L17.999,12 L18,4 C18,3.48716416 17.6139598,3.06449284 17.1166211,3.00672773 L17,3 L14,2.999 L14,5.131 L12,3.79814957 L10,5.13 L10,2.999 Z" id="path-1"></path>
    </defs>
    <g id="Symbols" stroke="none" stroke-width="1" fill="none" fill-rule="evenodd">
        <g id="icon/packages_alt_24px">
            <mask id="mask-2" fill="white">
                <use xlink:href="#path-1"></use>
            </mask>
            <g id="Mask" fill-rule="nonzero"></g>
            <g id="✱-/-Color-/-Icons-/-Selected-/-On-Surface-/-Inactive" mask="url(#mask-2)" fill="#000000" fill-opacity="0.54">
                <rect id="Rectangle" x="0" y="0" width="24" height="24"></rect>
            </g>
        </g>
    </g>
</svg>