<?xml version="1.0" encoding="UTF-8"?>
<svg width="24px" height="24px" viewBox="0 0 24 24" version="1.1" xmlns="http://www.w3.org/2000/svg" xmlns:xlink="http://www.w3.org/1999/xlink">
    <title>icon/package_24px</title>
    <defs>
        <path d="M14.5,1 C14.7761424,1 15,1.22385763 15,1.5 L15,2 L21,2 C22.1045695,2 23,2.8954305 23,4 L23,21 C23,22.1045695 22.1045695,23 21,23 L3,23 C1.8954305,23 1,22.1045695 1,21 L1,4 C1,2.8954305 1.8954305,2 3,2 L9,2 L9,1.5 C9,1.22385763 9.22385763,1 9.5,1 L14.5,1 Z M9,3 L3,3 C2.48716416,3 2.06449284,3.38604019 2.00672773,3.88337887 L2,4 L2,21 C2,21.5128358 2.38604019,21.9355072 2.88337887,21.9932723 L3,22 L21,22 C21.5128358,22 21.9355072,21.6139598 21.9932723,21.1166211 L22,21 L22,4 C22,3.48716416 21.6139598,3.06449284 21.1166211,3.00672773 L21,3 L15,3 L15,7.06574145 C15,7.34188383 14.7761424,7.56579459 14.5,7.56579459 C14.4012875,7.56579459 14.3047837,7.53652244 14.2226499,7.4817666 L12,6 L9.7773501,7.4817666 C9.54758575,7.63494283 9.23715108,7.5728559 9.08397485,7.34309155 C9.02921901,7.26095779 9,7.16445395 9,7.06574145 L9,3 Z M16,11 C16.5522847,11 17,11.4477153 17,12 L17,19 C17,19.5522847 16.5522847,20 16,20 L8,20 C7.44771525,20 7,19.5522847 7,19 L7,12 C7,11.4477153 7.44771525,11 8,11 L16,11 Z M16,12 L8,12 L8,19 L16,19 L16,12 Z M12.5,17 C12.7761424,17 13,17.2238576 13,17.5 C13,17.7761424 12.7761424,18 12.5,18 L9.5,18 C9.22385763,18 9,17.7761424 9,17.5 C9,17.2238576 9.22385763,17 9.5,17 L12.5,17 Z M14.5,17 C14.7761424,17 15,17.2238576 15,17.5 C15,17.7761424 14.7761424,18 14.5,18 C14.2238576,18 14,17.7761424 14,17.5 C14,17.2238576 14.2238576,17 14.5,17 Z M10.5,15 C10.7761424,15 11,15.2238576 11,15.5 C11,15.7761424 10.7761424,16 10.5,16 L9.5,16 C9.22385763,16 9,15.7761424 9,15.5 C9,15.2238576 9.22385763,15 9.5,15 L10.5,15 Z M14.5,15 C14.7761424,15 15,15.2238576 15,15.5 C15,15.7761424 14.7761424,16 14.5,16 L12.5,16 C12.2238576,16 12,15.7761424 12,15.5 C12,15.2238576 12.2238576,15 12.5,15 L14.5,15 Z M11.5,13 C11.7761424,13 12,13.2238576 12,13.5 C12,13.7761424 11.7761424,14 11.5,14 L9.5,14 C9.22385763,14 9,13.7761424 9,13.5 C9,13.2238576 9.22385763,13 9.5,13 L11.5,13 Z M14.5,13 C14.7761424,13 15,13.2238576 15,13.5 C15,13.7761424 14.7761424,14 14.5,14 L13.5,14 C13.2238576,14 13,13.7761424 13,13.5 C13,13.2238576 13.2238576,13 13.5,13 L14.5,13 Z M14,2 L10,2 L10,6.13 L12,4.79814957 L14,6.131 L14,2 Z" id="path-1"></path>
    </defs>
    <g id="Symbols" stroke="none" stroke-width="1" fill="none" fill-rule="evenodd">
        <g id="icon/package_24px">
            <mask id="mask-2" fill="white">
                <use xlink:href="#path-1"></use>
            </mask>
            <g id="Mask" fill-rule="nonzero"></g>
            <g id="✱-/-Color-/-Icons-/-Selected-/-On-Surface-/-Inactive" mask="url(#mask-2)" fill="#000000" fill-opacity="0.54">
                <rect id="Rectangle" x="0" y="0" width="24" height="24"></rect>
            </g>
        </g>
    </g>
</svg>