<?xml version="1.0" encoding="UTF-8"?>
<svg width="24px" height="24px" viewBox="0 0 24 24" version="1.1" xmlns="http://www.w3.org/2000/svg" xmlns:xlink="http://www.w3.org/1999/xlink">
    <title>icon/package_internal_24px</title>
    <defs>
        <path d="M14.5,1 C14.7761424,1 15,1.22385763 15,1.5 L15,2 L21,2 C22.1045695,2 23,2.8954305 23,4 L23,21 C23,22.1045695 22.1045695,23 21,23 L3,23 C1.8954305,23 1,22.1045695 1,21 L1,4 C1,2.8954305 1.8954305,2 3,2 L9,2 L9,1.5 C9,1.22385763 9.22385763,1 9.5,1 L14.5,1 Z M9,3 L3,3 C2.48716416,3 2.06449284,3.38604019 2.00672773,3.88337887 L2,4 L2,21 C2,21.5128358 2.38604019,21.9355072 2.88337887,21.9932723 L3,22 L21,22 C21.5128358,22 21.9355072,21.6139598 21.9932723,21.1166211 L22,21 L22,4 C22,3.48716416 21.6139598,3.06449284 21.1166211,3.00672773 L21,3 L15,3 L15,7.06574145 C15,7.34188383 14.7761424,7.56579459 14.5,7.56579459 C14.4012875,7.56579459 14.3047837,7.53652244 14.2226499,7.4817666 L12,6 L9.7773501,7.4817666 C9.54758575,7.63494283 9.23715108,7.5728559 9.08397485,7.34309155 C9.02921901,7.26095779 9,7.16445395 9,7.06574145 L9,3 Z M12,9 C15.3137085,9 18,11.6862915 18,15 C18,18.3137085 15.3137085,21 12,21 C8.6862915,21 6,18.3137085 6,15 C6,11.6862915 8.6862915,9 12,9 Z M12,10 C9.23857625,10 7,12.2385763 7,15 C7,17.7614237 9.23857625,20 12,20 C14.7614237,20 17,17.7614237 17,15 C17,12.2385763 14.7614237,10 12,10 Z M12.0871345,11.25 L12.3160992,11.4791705 C12.4420368,11.6052207 12.6168856,11.7335785 12.7046645,11.7644194 C12.8190888,11.8046167 12.8642616,11.8589516 12.8642616,11.9563892 C12.8642616,12.0416258 12.9138197,12.1165937 12.9971851,12.157468 C13.0702947,12.1933126 13.1648452,12.2678736 13.207306,12.3231578 C13.2497692,12.3784398 13.3494575,12.4236733 13.4288452,12.4236733 C13.5492031,12.4236733 13.5731882,12.4503558 13.5731882,12.5842184 C13.5731882,12.672521 13.5457893,12.7604113 13.5122985,12.7795384 C13.4777073,12.7992872 13.4671258,12.8917266 13.487786,12.9935006 C13.5181535,13.1430446 13.4989055,13.1910534 13.3714444,13.2836956 C13.0687267,13.5037257 13.2286038,14.1985649 13.6249532,14.3854876 C13.9001477,14.515271 14.0372902,14.6582003 14.2216799,15.0073672 C14.3600096,15.2693196 14.3960283,15.2974689 14.7225248,15.398797 C15.1835809,15.5418847 15.295209,15.7069387 15.2933784,16.2428623 C15.2926506,16.4541686 15.3176213,16.6270579 15.348869,16.6270579 C15.3801155,16.6270579 15.4866514,16.7486599 15.5856154,16.8972807 C15.6845841,17.0459037 15.8172603,17.1826674 15.88046,17.2012 C16.1178486,17.2708246 15.982573,17.3252962 15.6429494,17.2968399 C15.4205781,17.2782064 15.2233053,17.2930448 15.1083231,17.3370545 C14.9304097,17.4051538 14.6722869,17.7044512 14.5319016,18.0054401 C14.4559886,18.1682017 14.4496613,18.1698085 13.8390388,18.181403 C13.6115883,18.185721 13.2924305,18.2077177 13.1297945,18.2302829 C12.8495267,18.2691686 12.8248689,18.2623661 12.657176,18.0999528 C12.5598715,18.0057059 12.2002674,17.7960628 11.8580527,17.6340748 C11.3883687,17.4117468 11.1514312,17.25891 10.8914931,17.0105972 C10.5821105,16.7150524 10.5228791,16.6816478 10.3081934,16.6816478 C10.1415178,16.6816478 10.0079661,16.6384594 9.86666549,16.5388747 C9.59496923,16.3473823 8.77295777,16.0700739 8.38915764,16.0404274 L8.0790004,16.0164681 L8.0790004,15.7345684 C8.0790004,15.5795205 8.05457817,15.373986 8.02472982,15.2778221 C7.97089638,15.1043491 7.97355319,15.1013829 8.3641764,14.8995306 C8.72698225,14.7120524 9.56299146,14.1802428 9.80700981,13.9817038 C9.93896648,13.8743425 9.94464692,13.435314 9.82176815,12.8419386 C9.77303386,12.606609 9.73316184,12.3333235 9.73316184,12.2346306 C9.73316184,12.0773337 9.75594334,12.0509843 9.91778001,12.0210775 C10.0193152,12.0023084 10.1655345,11.9869568 10.242705,11.9869568 C10.3586271,11.9869568 10.3830129,11.9590234 10.3830129,11.8262261 C10.3830129,11.7187715 10.4512836,11.5966357 10.5889828,11.4577467 L10.7949551,11.25 L12.0871345,11.25 Z M14,2 L10,2 L10,6.13 L12,4.79814957 L14,6.131 L14,2 Z" id="path-1"></path>
    </defs>
    <g id="Symbols" stroke="none" stroke-width="1" fill="none" fill-rule="evenodd">
        <g id="icon/package_internal_24px">
            <mask id="mask-2" fill="white">
                <use xlink:href="#path-1"></use>
            </mask>
            <g id="Mask" fill-rule="nonzero"></g>
            <g id="✱-/-Color-/-Icons-/-Selected-/-On-Surface-/-Inactive" mask="url(#mask-2)" fill="#000000" fill-opacity="0.54">
                <rect id="Rectangle" x="0" y="0" width="24" height="24"></rect>
            </g>
        </g>
    </g>
</svg>