<?xml version="1.0" encoding="UTF-8"?>
<svg width="24px" height="24px" viewBox="0 0 24 24" version="1.1" xmlns="http://www.w3.org/2000/svg" xmlns:xlink="http://www.w3.org/1999/xlink">
    <title>icon/trans_truck_alt_24px</title>
    <defs>
        <path d="M15,5 C15.5128358,5 15.9355072,5.38604019 15.9932723,5.88337887 L16,6 L15.85,8 L20.1797538,8 C20.6168937,8 20.9982795,8.28295005 21.1306548,8.69033228 L21.1604381,8.80440252 L21.99725,13 L23.3162635,13.6586011 C23.6832055,13.8418202 23.8973086,14.2277772 23.8667284,14.6288142 L23.850122,14.74939 L23.1607768,18.1961161 C23.0750823,18.6245883 22.7230787,18.9430139 22.2978407,18.9931093 L22.1801961,19 L20.4367279,19.0010222 C20.2143512,19.8631171 19.4315516,20.5 18.5,20.5 C17.5684484,20.5 16.7856488,19.8631171 16.5632721,19.0010222 L7.43672788,19.0010222 C7.21435119,19.8631171 6.43155158,20.5 5.5,20.5 C4.56844842,20.5 3.78564881,19.8631171 3.56327212,19.0010222 L2.07397635,19 C2.05020467,19 2.02644056,18.9991524 2.0027293,18.9974587 C1.49119673,18.9609207 1.09710376,18.5457474 1.07491937,18.045557 L1.07491937,18 L3.56301369,17.9999808 C3.7730798,17.1838505 4.48534097,16.5693323 5.35073766,16.5054857 L5.5,16.5 C6.43191279,16.5 7.21495822,17.1373769 7.43698631,17.9999808 L16.5630137,17.9999808 C16.7850418,17.1373769 17.5680872,16.5 18.5,16.5 C19.4319128,16.5 20.2149582,17.1373769 20.4369863,17.9999808 L22.1801961,18 L22.8695413,14.5532739 L21.7619335,14 L19.0155644,14 C18.0328817,14 17.23626,13.2033783 17.23626,12.2206956 C17.23626,12.1469167 17.2408489,12.0732092 17.25,12 L17.4379826,10.4961389 C17.4734124,10.2127005 17.7143558,10 18,10 C18.2339277,10 18.4235635,10.1896359 18.4235635,10.4235635 L18.4221203,10.4584993 L18.4221203,10.4584993 L18.1940665,11.835601 C18.1032714,12.3803713 18.4712911,12.8955989 19.0160614,12.9863939 C19.0703929,12.9954492 19.1253796,13 19.1804604,13 L20.9769335,13 L20.3401919,9.80440252 C20.2546884,9.37570633 19.9026057,9.05703159 19.4772001,9.00689619 L19.3595076,9 L15.7659335,9 L15.6556515,10.3321819 C15.4884605,12.338474 13.86001,13.8966214 11.8696682,13.9950594 L11.6694685,14 L2.5,14 C2.22385763,14 2,13.7761424 2,13.5 C2,13.2545401 2.17687516,13.0503916 2.41012437,13.0080557 L2.5,13 L11.6350373,13 C13.1170126,13 14.3671484,11.9202261 14.5974574,10.473797 L14.6201489,10.2985112 L14.8379335,8.12 L14.9971914,6 L6.9336605,6 C6.96836954,5.51407356 7.3463056,5.06833704 7.82017446,5.00713961 L7.9311192,5 L15,5 Z M5.5,17.5 C4.94771525,17.5 4.5,17.9477153 4.5,18.5 C4.5,19.0522847 4.94771525,19.5 5.5,19.5 C6.05228475,19.5 6.5,19.0522847 6.5,18.5 C6.5,17.9477153 6.05228475,17.5 5.5,17.5 Z M18.5,17.5 C17.9477153,17.5 17.5,17.9477153 17.5,18.5 C17.5,19.0522847 17.9477153,19.5 18.5,19.5 C19.0522847,19.5 19.5,19.0522847 19.5,18.5 C19.5,17.9477153 19.0522847,17.5 18.5,17.5 Z M17.5,15 C17.7761424,15 18,15.2238576 18,15.5 C18,15.7761424 17.7761424,16 17.5,16 L16.5,16 C16.2238576,16 16,15.7761424 16,15.5 C16,15.2238576 16.2238576,15 16.5,15 L17.5,15 Z M8.5,15 C8.77614237,15 9,15.2238576 9,15.5 C9,15.7761424 8.77614237,16 8.5,16 L1.5,16 C1.22385763,16 1,15.7761424 1,15.5 C1,15.2238576 1.22385763,15 1.5,15 L8.5,15 Z M11.5,11 C11.7761424,11 12,11.2238576 12,11.5 C12,11.7761424 11.7761424,12 11.5,12 L4,12 C3.72385763,12 3.5,11.7761424 3.5,11.5 C3.5,11.2238576 3.72385763,11 4,11 L11.5,11 Z M12.5,9 C12.7761424,9 13,9.22385763 13,9.5 C13,9.77614237 12.7761424,10 12.5,10 L5,10 C4.72385763,10 4.5,9.77614237 4.5,9.5 C4.5,9.22385763 4.72385763,9 5,9 L12.5,9 Z M13.5,7 C13.7761424,7 14,7.22385763 14,7.5 C14,7.77614237 13.7761424,8 13.5,8 L6,8 C5.72385763,8 5.5,7.77614237 5.5,7.5 C5.5,7.22385763 5.72385763,7 6,7 L13.5,7 Z" id="path-1"></path>
    </defs>
    <g id="Symbols" stroke="none" stroke-width="1" fill="none" fill-rule="evenodd">
        <g id="icon/trans_truck_alt_24px">
            <mask id="mask-2" fill="white">
                <use xlink:href="#path-1"></use>
            </mask>
            <g id="Mask" fill-rule="nonzero"></g>
            <g id="✱-/-Color-/-Icons-/-Selected-/-On-Surface-/-Inactive" mask="url(#mask-2)" fill="#000000" fill-opacity="0.54">
                <rect id="Rectangle" x="0" y="0" width="24" height="24"></rect>
            </g>
        </g>
    </g>
</svg>